<?xml version="1.0" encoding="UTF-8"?>
<svg version="1.1" xmlns="http://www.w3.org/2000/svg" width="224" height="176">
<path d="M0 0 C1.97909398 -0.02686553 3.95828971 -0.04633375 5.9375 -0.0625 C7.03964844 -0.07410156 8.14179688 -0.08570312 9.27734375 -0.09765625 C12 0 12 0 13 1 C13.29015354 6.6363868 12.69413762 11.51804013 11.0625 16.9375 C10.73523926 18.02732178 10.73523926 18.02732178 10.40136719 19.13916016 C4.07052185 38.95393922 -8.20782074 56.24715592 -26.71264648 66.26879883 C-45.68712138 75.98909604 -67.34520401 78.70559649 -87.88671875 72.125 C-89.42779297 71.568125 -89.42779297 71.568125 -91 71 C-91.89332031 70.71125 -92.78664062 70.4225 -93.70703125 70.125 C-113.10809121 63.28116153 -127.68745186 47.27310949 -136.5 29.1875 C-138.61920768 24.36366816 -139.7938938 20.25570811 -140 15 C-136.14312986 15.55098145 -134.56048463 17.1388524 -132 20 C-130.86448236 21.84386436 -129.78412235 23.72241568 -128.75 25.625 C-118.42324815 43.66940928 -103.15270375 56.77514982 -82.9609375 62.32421875 C-78.95474996 63.23855971 -75.10312472 63.82095456 -71 64 C-69.90558594 64.07734375 -69.90558594 64.07734375 -68.7890625 64.15625 C-52.66091793 64.79923251 -37.63079165 59.84636793 -25 50 C-24.21367187 49.3915625 -23.42734375 48.783125 -22.6171875 48.15625 C-9.8436238 37.59099732 -2.08645809 20.81590047 -0.375 4.5 C-0.24402048 3.0005103 -0.1168544 1.50065654 0 0 Z " fill="#E0A530" transform="translate(175,92)"/>
<path d="M0 0 C7.85829345 -1.39702995 15.96368906 2.60496008 22.59375 6.5390625 C28.32410629 10.67983365 32.51034289 15.86224296 36 22 C36 22.66 36 23.32 36 24 C36.94875 24.309375 37.8975 24.61875 38.875 24.9375 C42 26 42 26 44 27 C44 27.66 44 28.32 44 29 C43.04480469 29.268125 42.08960938 29.53625 41.10546875 29.8125 C32.11052336 32.48354933 25.29324627 35.92434459 18 42 C17.34902344 42.51304688 16.69804687 43.02609375 16.02734375 43.5546875 C13.06885335 45.89821183 13.06885335 45.89821183 11 49 C10.01 49 9.02 49 8 49 C7.505 46.525 7.505 46.525 7 44 C6.566875 44.495 6.13375 44.99 5.6875 45.5 C4 47 4 47 1 47 C0.9484375 46.23558594 0.896875 45.47117188 0.84375 44.68359375 C0.00259378 36.74040263 -2.13737521 30.96359534 -6.34375 24.29077148 C-8.28393856 21.07049943 -9.00313881 19.14658248 -8.921875 15.3515625 C-8.02177469 12.07916392 -7.04097457 9.97826322 -5.0625 7.25 C-4.53785156 6.51265625 -4.01320313 5.7753125 -3.47265625 5.015625 C-2.98667969 4.35046875 -2.50070313 3.6853125 -2 3 C-1.34 2.01 -0.68 1.02 0 0 Z " fill="#E4A92E" transform="translate(122,58)"/>
<path d="M0 0 C20.27366821 6.60304415 34.5130579 19.67190395 45 38 C48.94866655 45.91578482 52.16871024 54.05835722 52 63 C31.60601078 59.70439338 31.60601078 59.70439338 28 55 C27.18018119 53.04871893 26.43891477 51.06374889 25.75 49.0625 C21.52886192 37.78531749 15.46154812 28.93482398 7.55078125 20.0078125 C1.65553088 13.05629215 -0.17291969 8.99182387 0 0 Z " fill="#E7B33B" transform="translate(132,16)"/>
<path d="M0 0 C4.01182936 3.80068045 6.66327021 6.3522405 7.37109375 11.91796875 C7.57740107 22.07557012 5.17806983 27.72924945 -1.5625 35.1875 C-10.30055633 43.44743626 -21.99512957 47.58220074 -33.93359375 47.25 C-41.40376598 46.34623625 -45.81295367 40.61277185 -50.1875 35.0625 C-52.55820508 31.85077357 -54.02200608 28.91197566 -55 25 C-53.845 25.33 -52.69 25.66 -51.5 26 C-39.25787316 28.69249309 -27.2439225 27.90303753 -16.4375 21.4375 C-8.78035029 16.04268998 -3.75747271 8.45431359 0 0 Z " fill="#D89723" transform="translate(109,85)"/>
<path d="M0 0 C-1.70662882 13.88842765 -6.78780009 26.69107554 -15 38 C-15.7425 39.051875 -16.485 40.10375 -17.25 41.1875 C-21.37607251 45.40734688 -26.15335945 48.65573314 -31 52 C-32.25081152 49.49837696 -31.96505037 48.03713657 -31.8125 45.25 C-31.72932955 40.37493182 -32.62330934 36.50563139 -34.125 31.875 C-35.92496067 25.96545172 -36.84705251 21.65047204 -34 16 C-27.44361291 6.1205126 -18.17644652 1.89274772 -6.87890625 -0.4375 C-2.37363495 -1.18681747 -2.37363495 -1.18681747 0 0 Z " fill="#E1A835" transform="translate(172,93)"/>
<path d="M0 0 C8.04853982 0.61911845 15.39797462 5.39797462 21 11 C25.93840459 17.48552382 28.10258076 24.08682127 29.84765625 31.99609375 C31.24398227 35.63600801 32.52259459 36.39963402 36 38 C36.99 38.495 36.99 38.495 38 39 C37.52590352 43.31730413 34.96603297 45.33647461 31.9375 48.25 C31.01839844 49.14203125 30.09929687 50.0340625 29.15234375 50.953125 C28.44207031 51.62859375 27.73179688 52.3040625 27 53 C15.74599267 49.05429449 9.74836923 37.48564862 4.6796875 27.36328125 C0.90110091 18.67253209 -0.36240238 9.42246179 0 0 Z " fill="#D69322" transform="translate(57,57)"/>
<path d="M0 0 C0.25091083 1.72614556 0.47480762 3.45622975 0.6875 5.1875 C0.81511719 6.15042969 0.94273437 7.11335938 1.07421875 8.10546875 C0.98173539 11.71231993 0.2785037 13.2115232 -2 16 C-4.8828125 17.66015625 -4.8828125 17.66015625 -8.125 19.0625 C-12.34911276 20.66937579 -12.34911276 20.66937579 -14.98828125 24.01953125 C-15.00688302 27.16323064 -12.99159117 28.7066526 -11 31 C-11 31.66 -11 32.32 -11 33 C-22.44480839 36.66233869 -34.09798952 36.07784918 -45 31 C-48.79119884 28.83293775 -52.424529 26.50564503 -56 24 C-55.67 23.34 -55.34 22.68 -55 22 C-52.74360157 21.51116335 -50.4679348 21.11043346 -48.1875 20.75 C-37.32972303 18.79541869 -27.49058034 14.33282262 -20 6 C-19.30173314 4.67227359 -18.61370425 3.3390974 -17.9375 2 C-14.44678351 -3.51877361 -5.55016999 -0.83078016 0 0 Z " fill="#D59527" transform="translate(132,115)"/>
<path d="M0 0 C3.09834579 0.92169278 4.66200434 1.50734309 6.51953125 4.21484375 C6.94621094 5.11332031 7.37289062 6.01179688 7.8125 6.9375 C16.5322916 24.08417031 29.61944629 37.9225997 48.07055664 44.29101562 C51.03191124 45.25212201 54.00436919 46.15190525 57 47 C57.58958496 47.18320801 58.17916992 47.36641602 58.78662109 47.55517578 C61.76889995 48.15452633 64.58813514 48.07384255 67.62890625 48.02734375 C68.91087891 48.01509766 70.19285156 48.00285156 71.51367188 47.99023438 C73.54362635 47.96537377 75.57343673 47.93732075 77.60327148 47.90405273 C79.57003446 47.87386068 81.53698353 47.85667198 83.50390625 47.83984375 C84.67767822 47.82300537 85.8514502 47.80616699 87.06079102 47.78881836 C90 48 90 48 93 50 C92.01 51.32 91.02 52.64 90 54 C91.98 54.495 91.98 54.495 94 55 C91.69 55 89.38 55 87 55 C87 55.99 87 56.98 87 58 C73.36132993 58.44055836 60.97879385 58.68995311 48 54 C47.10667969 53.71125 46.21335938 53.4225 45.29296875 53.125 C25.82611353 46.25795186 11.27821253 30.1983542 2.4375 12.0625 C0.44982769 7.80166315 -0.27355484 4.70654612 0 0 Z " fill="#CEA146" transform="translate(36,109)"/>
<path d="M0 0 C0 4 0 4 -1.35546875 5.75390625 C-2.26232422 6.64916016 -2.26232422 6.64916016 -3.1875 7.5625 C-10.84885876 15.94837357 -13.63109095 27.37718464 -17 38 C-17.99 38 -18.98 38 -20 38 C-21.61907524 36.02627018 -22.96196372 34.14946523 -24.3125 32 C-24.70550293 31.3814917 -25.09850586 30.7629834 -25.50341797 30.12573242 C-28.40338388 25.37791154 -30.65953111 20.5123679 -32.625 15.3125 C-33.01425659 14.28866211 -33.01425659 14.28866211 -33.41137695 13.24414062 C-35.1325799 8.39773969 -35.1325799 8.39773969 -34 5 C-23.03854632 -0.60708366 -12.01068281 -0.58178765 0 0 Z " fill="#DD9F27" transform="translate(119,56)"/>
<path d="M0 0 C20.27366821 6.60304415 34.5130579 19.67190395 45 38 C48.94866655 45.91578482 52.16871024 54.05835722 52 63 C50.24871182 62.71617054 48.49899997 62.42260471 46.75 62.125 C45.28820312 61.88136719 45.28820312 61.88136719 43.796875 61.6328125 C41.22735883 61.05144152 39.27928944 60.29159735 37 59 C38.2375 58.979375 39.475 58.95875 40.75 58.9375 C41.44609375 58.92589844 42.1421875 58.91429687 42.859375 58.90234375 C45.03292403 59.00150201 46.91306537 59.40306149 49 60 C47.42848667 54.3603848 45.73244313 49.20465358 43 44 C43 43.34 43 42.68 43 42 C42.34 42 41.68 42 41 42 C40.731875 40.906875 40.46375 39.81375 40.1875 38.6875 C39.06861896 35.21307994 38.53602446 34.30547678 36 32 C36 31.01 36 30.02 36 29 C34.35 29.66 32.7 30.32 31 31 C30.505 28.525 30.505 28.525 30 26 C28.02 26.99 28.02 26.99 26 28 C26 27.01 26 26.02 26 25 C25.01 25 24.02 25 23 25 C22.67 26.32 22.34 27.64 22 29 C21.01 29 20.02 29 19 29 C19.2475 28.443125 19.495 27.88625 19.75 27.3125 C20.29135039 24.77690346 20.29135039 24.77690346 18.0625 22.4375 C17.381875 21.633125 16.70125 20.82875 16 20 C16 19.01 16 18.02 16 17 C14.02 16.67 12.04 16.34 10 16 C10 17.32 10 18.64 10 20 C10.66 20 11.32 20 12 20 C12 20.99 12 21.98 12 23 C12.66 23 13.32 23 14 23 C14 23.66 14 24.32 14 25 C14.66 25 15.32 25 16 25 C16.33 26.65 16.66 28.3 17 30 C13.41759195 26.49477129 10.06360748 22.8841498 6.8125 19.0625 C5.95269531 18.06347656 5.09289062 17.06445312 4.20703125 16.03515625 C0.38573056 10.78002238 -0.25637812 6.40945305 0 0 Z M19 20 C20 22 20 22 20 22 Z M12 17 C14 18 14 18 14 18 Z " fill="#E9B436" transform="translate(132,16)"/>
<path d="M0 0 C2.05487181 1.48650301 3.98046705 3.04738477 5.89453125 4.7109375 C6.82458984 5.51724609 6.82458984 5.51724609 7.7734375 6.33984375 C12.22275989 10.48165357 15.52938874 15.086912 17.89453125 20.7109375 C17.89453125 21.7009375 17.89453125 22.6909375 17.89453125 23.7109375 C0.80138913 21.09429348 -16.03948598 11.7294164 -28.10546875 -0.2890625 C-27.10546875 -2.2890625 -27.10546875 -2.2890625 -25.28515625 -2.921875 C-16.10528779 -4.88232149 -8.2244747 -5.03539267 0 0 Z " fill="#E2B241" transform="translate(124.10546875,30.2890625)"/>
<path d="M0 0 C-1 3 -1 3 -3.44140625 4.53515625 C-20.28235294 12.77647059 -20.28235294 12.77647059 -30 10 C-34.81672069 7.97204733 -39.41456039 5.49818403 -44 3 C-44 1.68 -44 0.36 -44 -1 C-42.10807525 -1.98669759 -40.21128022 -2.9640602 -38.3125 -3.9375 C-36.72888672 -4.75541016 -36.72888672 -4.75541016 -35.11328125 -5.58984375 C-22.669811 -11.22609565 -10.66558884 -7.35257214 0 0 Z " fill="#D99F30" transform="translate(107,47)"/>
<path d="M0 0 C0.2475 0.639375 0.495 1.27875 0.75 1.9375 C1.81925227 4.1061865 1.81925227 4.1061865 3.8125 4.9375 C6.85264793 5.02436137 8.45311979 3.5673109 11 2 C11.99 2.33 12.98 2.66 14 3 C14 4.32 14 5.64 14 7 C13.34 7 12.68 7 12 7 C12.061875 7.928125 12.12375 8.85625 12.1875 9.8125 C12 13 12 13 10.7265625 14.59765625 C4.18488517 19.91091906 -5.89497133 20.80175643 -14 20 C-18.73954796 18.26824209 -21.60228363 15.6808594 -25 12 C-25.66 11.34 -26.32 10.68 -27 10 C-27.8563027 7.36766208 -28.38929927 4.70453182 -29 2 C-28.0925 2.165 -27.185 2.33 -26.25 2.5 C-17.63449167 3.70338072 -9.37118486 3.33295316 -1 1 C-0.67 0.67 -0.34 0.34 0 0 Z " fill="#D08C1F" transform="translate(87,112)"/>
<path d="M0 0 C3.85687014 0.55098145 5.43951537 2.1388524 8 5 C9.13551764 6.84386436 10.21587765 8.72241568 11.25 10.625 C21.57675185 28.66940928 36.84729625 41.77514982 57.0390625 47.32421875 C61.04525004 48.23855971 64.89687528 48.82095456 69 49 C69.72960937 49.0515625 70.45921875 49.103125 71.2109375 49.15625 C87.54668247 49.80750894 102.08057878 44.66260552 115 35 C116.37276362 34.01770045 117.74748452 33.03812465 119.125 32.0625 C120.07375 31.381875 121.0225 30.70125 122 30 C121.1875 32.4375 121.1875 32.4375 120 35 C118.515 35.495 118.515 35.495 117 36 C115.79117904 38.00016466 115.79117904 38.00016466 115 40 C118.80427492 42.2013866 118.80427492 42.2013866 123 43 C123 42.34 123 41.68 123 41 C124.65 40.34 126.3 39.68 128 39 C128 38.34 128 37.68 128 37 C128.99 37.33 129.98 37.66 131 38 C120.89307017 48.30345347 105.03780459 58.62227898 90.13671875 59.08984375 C89.43160156 59.06019531 88.72648437 59.03054687 88 59 C88 58.34 88 57.68 88 57 C88.99 56.67 89.98 56.34 91 56 C91.83333333 54.08333333 91.83333333 54.08333333 92 52 C91.67 51.34 91.34 50.68 91 50 C89.88496094 50.15726563 88.76992187 50.31453125 87.62109375 50.4765625 C67.38386989 52.97454621 50.14176024 50.33656348 33 39 C31.3603125 38.0409375 31.3603125 38.0409375 29.6875 37.0625 C25.8909171 34.14884336 23.01558984 30.6967428 20 27 C19.4328125 26.33097656 18.865625 25.66195312 18.28125 24.97265625 C14.1122419 19.88457136 10.87210359 14.51416724 7.84008789 8.69677734 C6.0198335 5.31758057 4.7220312 3.24617896 1 2 C0.67 2.66 0.34 3.32 0 4 C0 2.68 0 1.36 0 0 Z " fill="#D1993C" transform="translate(35,107)"/>
<path d="M0 0 C0.71875 2.2109375 0.71875 2.2109375 1 5 C-0.40625 7.2890625 -0.40625 7.2890625 -2.5 9.625 C-13.0015687 22.04758736 -19.37398054 35.51732092 -22.26171875 51.48828125 C-23 54 -23 54 -26 56 C-26.99 55.67 -27.98 55.34 -29 55 C-30.48344288 36.82782477 -20.12083309 19.31099358 -9.296875 5.57421875 C-4.323217 0 -4.323217 0 0 0 Z " fill="#C19A5F" transform="translate(62,30)"/>
<path d="M0 0 C0.99 0.33 1.98 0.66 3 1 C3.66796875 2.94140625 3.66796875 2.94140625 4.1875 5.5625 C5.4948606 10.8968109 7.52425748 15.50684128 10 20.375 C10.51663208 21.39122437 10.51663208 21.39122437 11.04370117 22.42797852 C12.90712525 26.03202734 14.86649809 29.54639378 17 33 C15 34 15 34 12.93359375 33.46875 C5.10256161 30.42947618 -2.30393533 26.52482246 -6.6875 19.0625 C-8.22126581 15.40125258 -8.20439772 12.72162102 -6.984375 8.96484375 C-5.24036142 5.48373728 -2.72811837 2.74527635 0 0 Z " fill="#CD8A1E" transform="translate(52,73)"/>
<path d="M0 0 C10.85779725 1.20905603 21.28843872 6.92829348 28.10546875 15.3515625 C33 22.13161178 33 22.13161178 33 24.75 C33.94875 25.059375 34.8975 25.36875 35.875 25.6875 C39 26.75 39 26.75 41 27.75 C41 28.41 41 29.07 41 29.75 C39.46279297 30.25660156 39.46279297 30.25660156 37.89453125 30.7734375 C36.53382737 31.2238774 35.17315178 31.67440276 33.8125 32.125 C33.13896484 32.34671875 32.46542969 32.5684375 31.77148438 32.796875 C28.13030959 34.00467932 24.54288783 35.27780972 21 36.75 C21 35.76 21 34.77 21 33.75 C21.99 33.75 22.98 33.75 24 33.75 C24 33.09 24 32.43 24 31.75 C24.928125 31.62625 24.928125 31.62625 25.875 31.5 C28.18437567 30.93741541 28.18437567 30.93741541 29.25 28.6875 C29.4975 28.048125 29.745 27.40875 30 26.75 C29.34 26.09 28.68 25.43 28 24.75 C27.33333333 23.41666667 26.66666667 22.08333333 26 20.75 C24.58022091 18.52256213 24.58022091 18.52256213 23 16.75 C22.34 16.75 21.68 16.75 21 16.75 C20.79375 15.80125 20.5875 14.8525 20.375 13.875 C19.30619803 10.57540557 19.30619803 10.57540557 16.4375 9.375 C12.23844743 8.6115359 8.25307297 8.57987708 4 8.75 C3.67 8.09 3.34 7.43 3 6.75 C0.77810134 5.63661712 0.77810134 5.63661712 -2 5.75 C-4.29378125 7.20380502 -6.01707283 8.85930201 -8 10.75 C-8 6.90517306 -6.82215886 5.21672251 -4.52734375 2.22265625 C-3 0.75 -3 0.75 0 0 Z " fill="#E6B235" transform="translate(125,57.25)"/>
<path d="M0 0 C1.60488281 0.0009668 1.60488281 0.0009668 3.2421875 0.00195312 C11.0765635 0.0463545 11.0765635 0.0463545 14.5 1.1875 C12.625 5.0625 12.625 5.0625 11.5 6.1875 C8.55730648 6.20849781 5.62888383 6.1798776 2.6875 6.125 C-8.63265628 6.02685751 -18.73994767 7.61668617 -29.5 11.1875 C-30.16 10.5275 -30.82 9.8675 -31.5 9.1875 C-31.5 7.8675 -31.5 6.5475 -31.5 5.1875 C-21.14549028 0.88940163 -11.15259046 -0.13145113 0 0 Z " fill="#E3BC59" transform="translate(111.5,12.8125)"/>
<path d="M0 0 C2.125 0.9375 2.125 0.9375 4 2 C3.01 3.32 2.02 4.64 1 6 C2.32 6.33 3.64 6.66 5 7 C2.69 7 0.38 7 -2 7 C-2 7.66 -2 8.32 -2 9 C-9.9617303 9.23040377 -17.76779768 8.9876481 -25.6875 8.1875 C-26.46528809 8.11740723 -27.24307617 8.04731445 -28.04443359 7.97509766 C-33.54757628 7.36794626 -33.54757628 7.36794626 -35.8828125 5.46875 C-36.25148438 4.9840625 -36.62015625 4.499375 -37 4 C-39.10332891 3.28552357 -39.10332891 3.28552357 -41 3 C-40.67 2.34 -40.34 1.68 -40 1 C-38.99710937 1.17273438 -37.99421875 1.34546875 -36.9609375 1.5234375 C-30.87979116 2.28190573 -24.79783947 1.93690159 -18.68896484 1.703125 C-16.60925196 1.62440391 -14.52938743 1.5576354 -12.44921875 1.4921875 C-6.03417945 1.61405011 -6.03417945 1.61405011 0 0 Z " fill="#C88821" transform="translate(125,157)"/>
<path d="M0 0 C0.77601562 0.07605469 1.55203125 0.15210938 2.3515625 0.23046875 C5.375 0.8125 5.375 0.8125 7.42626953 1.52709961 C14.99222619 4.15843181 22.04614587 4.1597324 30 4 C31.29035156 3.98646484 32.58070312 3.97292969 33.91015625 3.95898438 C37.06555028 3.92392444 40.22004578 3.87478144 43.375 3.8125 C40.51034702 6.67715298 38.39970152 6.14446651 34.390625 6.26171875 C33.6974115 6.28345657 33.004198 6.3051944 32.28997803 6.32759094 C30.82072832 6.37153554 29.35133003 6.41072918 27.88183594 6.44555664 C25.64727897 6.49946255 23.4136998 6.56977282 21.1796875 6.64257812 C9.255987 6.98200156 9.255987 6.98200156 3.375 5.8125 C5.25 6.125 5.25 6.125 7.375 6.8125 C8.365 8.2975 8.365 8.2975 9.375 9.8125 C12.17503848 10.3472713 14.79759015 10.69932303 17.625 10.9375 C18.42534668 11.01532715 19.22569336 11.0931543 20.05029297 11.17333984 C27.14793802 11.84601552 34.25902323 12.37776187 41.375 12.8125 C41.375 13.1425 41.375 13.4725 41.375 13.8125 C27.73687395 14.25304078 15.35291356 14.50253807 2.375 9.8125 C0.84359375 9.30976563 0.84359375 9.30976563 -0.71875 8.796875 C-5.73723488 7.02066968 -5.73723488 7.02066968 -7.625 5.8125 C-8.3828125 3.6875 -8.3828125 3.6875 -8.625 1.8125 C-5.5241424 -0.02111214 -3.56767692 -0.40092786 0 0 Z " fill="#CCA358" transform="translate(81.625,153.1875)"/>
<path d="M0 0 C14.08154847 4.58629811 24.98506314 12.0534411 35 23 C34.67 23.66 34.34 24.32 34 25 C31.1875 24.375 31.1875 24.375 28 23 C26.9641321 21.01833966 25.96887581 19.01526169 25 17 C19.57882603 10.90314348 11.00917049 5.59433136 3 4 C3.34227572 6.97065509 3.34227572 6.97065509 4 10 C4.66 10.33 5.32 10.66 6 11 C6.33 11.99 6.66 12.98 7 14 C7.8353125 12.9790625 7.8353125 12.9790625 8.6875 11.9375 C9.450625 11.298125 10.21375 10.65875 11 10 C13.75 10.25 13.75 10.25 16 11 C15.67 11.99 15.34 12.98 15 14 C12.4375 15.1875 12.4375 15.1875 10 16 C10 17.32 10 18.64 10 20 C10.66 20 11.32 20 12 20 C12 20.99 12 21.98 12 23 C12.66 23 13.32 23 14 23 C14 23.66 14 24.32 14 25 C14.66 25 15.32 25 16 25 C16.33 26.65 16.66 28.3 17 30 C13.41759195 26.49477129 10.06360748 22.8841498 6.8125 19.0625 C5.95269531 18.06347656 5.09289062 17.06445312 4.20703125 16.03515625 C0.38573056 10.78002238 -0.25637812 6.40945305 0 0 Z " fill="#E3B032" transform="translate(132,16)"/>
<path d="M0 0 C3.85687014 0.55098145 5.43951537 2.1388524 8 5 C9.13551764 6.84386436 10.21587765 8.72241568 11.25 10.625 C21.57675185 28.66940928 36.84729625 41.77514982 57.0390625 47.32421875 C68.31506953 49.89776653 79.57168982 49.09963122 91 48 C91 48.66 91 49.32 91 50 C69.62557954 53.01465815 51.25274363 51.07130329 33 39 C31.3603125 38.0409375 31.3603125 38.0409375 29.6875 37.0625 C25.8909171 34.14884336 23.01558984 30.6967428 20 27 C19.4328125 26.33097656 18.865625 25.66195312 18.28125 24.97265625 C14.1122419 19.88457136 10.87210359 14.51416724 7.84008789 8.69677734 C6.0198335 5.31758057 4.7220312 3.24617896 1 2 C0.67 2.66 0.34 3.32 0 4 C0 2.68 0 1.36 0 0 Z " fill="#E0CEA6" transform="translate(35,107)"/>
<path d="M0 0 C0.71875 2.2109375 0.71875 2.2109375 1 5 C-0.40625 7.2890625 -0.40625 7.2890625 -2.5 9.625 C-9.07932124 17.36605454 -14.24337 25.55009223 -18 35 C-18.33 35 -18.66 35 -19 35 C-18.54177532 31.53058454 -18.10868317 28.32604951 -17 25 C-16.34 25 -15.68 25 -15 25 C-14.87625 24.443125 -14.7525 23.88625 -14.625 23.3125 C-13.94023145 20.77885636 -13.00866237 18.42078968 -12 16 C-12.99 16 -13.98 16 -15 16 C-15 16.99 -15 17.98 -15 19 C-16.98 19.99 -16.98 19.99 -19 21 C-17.50311148 16.50933444 -15.01133087 13.06075196 -12.125 9.375 C-11.69058594 8.80265625 -11.25617187 8.2303125 -10.80859375 7.640625 C-4.8915516 0 -4.8915516 0 0 0 Z " fill="#D2B681" transform="translate(62,30)"/>
<path d="M0 0 C4.02624699 3.81433926 6.69862867 6.35073573 7.3359375 11.953125 C7.42142445 19.16822325 6.85496044 23.85615679 3 30 C2.67 30 2.34 30 2 30 C2.11859375 28.81921875 2.2371875 27.6384375 2.359375 26.421875 C2.49070491 24.86467752 2.62085142 23.30737991 2.75 21.75 C2.83121094 20.97269531 2.91242188 20.19539063 2.99609375 19.39453125 C3.40279041 14.59866352 3.40279041 14.59866352 1.140625 10.453125 C-0.844584 8.81278364 -0.844584 8.81278364 -3 9 C-3.12375 9.70125 -3.2475 10.4025 -3.375 11.125 C-4.04268547 14.19635318 -4.86696383 17.0674358 -6 20 C-8.32383747 21.16191874 -10.45093524 21.51446385 -13 22 C-14.33542939 22.32483418 -15.66961551 22.6550855 -17 23 C-16.34 22.38125 -15.68 21.7625 -15 21.125 C-8.74774261 14.83711722 -3.60424083 8.10954188 0 0 Z " fill="#E0A93F" transform="translate(109,85)"/>
<path d="M0 0 C0.86560547 0.01353516 1.73121094 0.02707031 2.62304688 0.04101562 C4.72814174 0.0759067 6.83290974 0.12969335 8.9375 0.1875 C8.9375 4.1875 8.9375 4.1875 7.58203125 5.94140625 C6.97746094 6.53824219 6.37289062 7.13507812 5.75 7.75 C-1.91135876 16.13587357 -4.69359095 27.56468464 -8.0625 38.1875 C-9.0525 38.1875 -10.0425 38.1875 -11.0625 38.1875 C-11.5575 36.7025 -11.5575 36.7025 -12.0625 35.1875 C-10.5775 34.6925 -10.5775 34.6925 -9.0625 34.1875 C-8.1055284 31.69457398 -7.33319079 29.31347151 -6.625 26.75 C-6.19845999 25.29204423 -5.76876649 23.83500737 -5.3359375 22.37890625 C-5.12420898 21.66492676 -4.91248047 20.95094727 -4.69433594 20.21533203 C-3.41330179 16.10394499 -1.76324121 12.14006057 -0.0625 8.1875 C-1.0525 8.6825 -1.0525 8.6825 -2.0625 9.1875 C-1.4025 7.5375 -0.7425 5.8875 -0.0625 4.1875 C-5.80474339 3.24321998 -9.49882311 3.24668248 -15.0625 5.1875 C-17.23046875 4.24609375 -17.23046875 4.24609375 -19.0625 3.1875 C-12.55597698 0.57013677 -6.98082591 -0.21121196 0 0 Z " fill="#E3AE3C" transform="translate(110.0625,55.8125)"/>
<path d="M0 0 C9.27734375 -0.09765625 9.27734375 -0.09765625 12 0 C13 1 13 1 13.18359375 4.56640625 C13.12139431 8.86965051 12.29933012 12.82711752 11.0625 16.9375 C10.84577637 17.66259766 10.62905273 18.38769531 10.40576172 19.13476562 C6.58859969 31.12049954 0.35281652 42.57286624 -8 52 C-9 49 -9 49 -8.25 46.375 C-7 44 -7 44 -4 43 C-2.55455788 40.89268192 -1.29226558 38.85318624 -0.0625 36.625 C0.46754639 35.67161743 0.46754639 35.67161743 1.00830078 34.69897461 C6.64866865 24.3305365 8.8054178 14.64717649 10 3 C7.36 2.67 4.72 2.34 2 2 C2 5.3 2 8.6 2 12 C1.34 12 0.68 12 0 12 C0 13.98 0 15.96 0 18 C-0.66 18 -1.32 18 -2 18 C-1.34 12.06 -0.68 6.12 0 0 Z " fill="#E9D9AB" transform="translate(175,92)"/>
<path d="M0 0 C4.86150367 4.01074053 4.86150367 4.01074053 5.4375 8.125 C3.84165881 22.25959338 3.84165881 22.25959338 0.921875 24.828125 C-0.02945313 25.40820312 -0.02945313 25.40820312 -1 26 C-1.16276042 23.98177083 -1.32552083 21.96354167 -1.48828125 19.9453125 C-1.87393036 17.60480784 -1.87393036 17.60480784 -5 16 C-5.6015115 10.08513692 -4.77614857 6.23197231 -2 1 C-1.34 0.67 -0.68 0.34 0 0 Z " fill="#DD9F2D" transform="translate(108,93)"/>
<path d="M0 0 C-1.63436328 13.30033564 -6.48840342 25.91906321 -14 37 C-15.25955231 33.22134307 -14.48087189 31.96588214 -13.0625 28.3125 C-12.68222656 27.31863281 -12.30195313 26.32476562 -11.91015625 25.30078125 C-11.60980469 24.54152344 -11.30945313 23.78226563 -11 23 C-10.01 23 -9.02 23 -8 23 C-7.87625 22.34 -7.7525 21.68 -7.625 21 C-7.14173626 18.68033406 -6.59714423 16.41553831 -6 14.125 C-5.05877402 10.43033681 -4.47272498 6.78179984 -4 3 C-10.435 3.495 -10.435 3.495 -17 4 C-17.33 5.32 -17.66 6.64 -18 8 C-18.515625 8.12375 -19.03125 8.2475 -19.5625 8.375 C-22.72702351 9.18641628 -25.86124985 10.0945913 -29 11 C-23.1547502 4.42409397 -8.72189468 -4.36094734 0 0 Z " fill="#E3C580" transform="translate(172,93)"/>
<path d="M0 0 C2.25 2.5 2.25 2.5 4 5 C3.34 6.32 2.68 7.64 2 9 C1.01 9 0.02 9 -1 9 C-1 9.66 -1 10.32 -1 11 C-2.65 11.66 -4.3 12.32 -6 13 C-6 13.66 -6 14.32 -6 15 C-9 16 -9 16 -12.1875 14.5625 C-13.115625 14.046875 -14.04375 13.53125 -15 13 C-13.6875 10.0625 -13.6875 10.0625 -12 7 C-11.01 6.67 -10.02 6.34 -9 6 C-8.3162955 4.67532254 -7.65035814 3.34136367 -7 2 C-4 0 -4 0 0 0 Z " fill="#D89A29" transform="translate(164,135)"/>
<path d="M0 0 C1.31054333 1.06041976 2.60258531 2.14411811 3.875 3.25 C4.80505859 4.05630859 4.80505859 4.05630859 5.75390625 4.87890625 C10.20322864 9.02071607 13.50985749 13.6259745 15.875 19.25 C15.875 20.24 15.875 21.23 15.875 22.25 C14.885 21.92 13.895 21.59 12.875 21.25 C12.875 20.26 12.875 19.27 12.875 18.25 C11.25016084 15.55469627 11.25016084 15.55469627 9.125 12.75 C8.42890625 11.7909375 7.7328125 10.831875 7.015625 9.84375 C4.13286326 6.35076862 1.39983876 4.286544 -2.8125 2.6875 C-6.125 1.25 -6.125 1.25 -7.125 -0.75 C-11.15245016 -1.87828381 -15.27853397 -2.04041811 -19.4375 -2.3125 C-20.69175781 -2.39628906 -21.94601563 -2.48007812 -23.23828125 -2.56640625 C-24.66720703 -2.65728516 -24.66720703 -2.65728516 -26.125 -2.75 C-25.485625 -1.80125 -24.84625 -0.8525 -24.1875 0.125 C-22.125 3.25 -22.125 3.25 -21.125 5.25 C-25.3992558 3.6669423 -27.39031794 0.74431596 -30.125 -2.75 C-19.58862458 -7.26558947 -9.39482415 -6.79625576 0 0 Z " fill="#E9D08A" transform="translate(126.125,31.75)"/>
<path d="M0 0 C1.15214876 0.76136146 2.30050618 1.52868682 3.4375 2.3125 C2.4375 5.3125 2.4375 5.3125 -0.14453125 6.953125 C-1.21058594 7.48421875 -2.27664062 8.0153125 -3.375 8.5625 C-4.96248047 9.37460937 -4.96248047 9.37460937 -6.58203125 10.203125 C-9.58677735 11.32153639 -10.66475041 11.51931097 -13.5625 10.3125 C-12.94375 9.85875 -12.325 9.405 -11.6875 8.9375 C-9.50330167 7.34141081 -9.50330167 7.34141081 -7.5625 5.3125 C-7.5625 4.3225 -7.5625 3.3325 -7.5625 2.3125 C-7.5625 1.9825 -7.5625 1.6525 -7.5625 1.3125 C-7.88630126 -0.02318021 -8.21907551 -1.35673011 -8.5625 -2.6875 C-11.39609844 -2.74199228 -14.22862485 -2.78140733 -17.0625 -2.8125 C-18.24972656 -2.83763672 -18.24972656 -2.83763672 -19.4609375 -2.86328125 C-24.84248079 -2.90739226 -29.39249927 -2.19344058 -34.5625 -0.6875 C-33.5625 -2.6875 -33.5625 -2.6875 -31.62890625 -3.5390625 C-19.99203567 -7.13360287 -10.43112541 -6.45299849 0 0 Z " fill="#E3C481" transform="translate(103.5625,44.6875)"/>
<path d="M0 0 C3.37891114 0.91321923 4.73453027 1.5968793 6.6875 4.5625 C8.24804144 8.64963234 9.18952902 12.7092713 10 17 C9.34 17.33 8.68 17.66 8 18 C8.66 18.598125 9.32 19.19625 10 19.8125 C12 22 12 22 12 25 C12.66 25 13.32 25 14 25 C14.33 25.99 14.66 26.98 15 28 C15.99 28.33 16.98 28.66 18 29 C18 29.99 18 30.98 18 32 C19.485 32.495 19.485 32.495 21 33 C20.67 34.32 20.34 35.64 20 37 C11.3738799 28.33394416 0.50534521 15.26466224 -0.1875 2.5625 C-0.125625 1.716875 -0.06375 0.87125 0 0 Z " fill="#BF7D1E" transform="translate(36,109)"/>
<path d="M0 0 C0.66 0.33 1.32 0.66 2 1 C2 1.99 2 2.98 2 4 C2.99 4.33 3.98 4.66 5 5 C4.67 6.32 4.34 7.64 4 9 C3.34 9 2.68 9 2 9 C1.41561151 16.06460752 1.60793957 20.71116241 6.00390625 26.44140625 C6.33261719 26.95574219 6.66132812 27.47007813 7 28 C6.67 28.66 6.34 29.32 6 30 C1.54597415 23.78017692 -1.80225987 17.63564417 -4.5 10.5 C-4.76699707 9.80583984 -5.03399414 9.11167969 -5.30908203 8.39648438 C-7.1279477 3.38384309 -7.1279477 3.38384309 -6 0 C-3.4832097 -1.25839515 -2.62168527 -0.81927665 0 0 Z " fill="#D9A855" transform="translate(91,61)"/>
<path d="M0 0 C2.91897519 2.77174618 5.2430098 5.60843945 7.5 8.9375 C9.34811173 11.63463741 11.1781975 14.21779694 13.25 16.75 C15.28465291 19.36598232 16.71175795 21.94890041 18 25 C17.67 25.66 17.34 26.32 17 27 C15.68 27 14.36 27 13 27 C12.87625 26.360625 12.7525 25.72125 12.625 25.0625 C12.41875 24.381875 12.2125 23.70125 12 23 C11.34 22.67 10.68 22.34 10 22 C10 21.01 10 20.02 10 19 C8.68 18.67 7.36 18.34 6 18 C6 17.01 6 16.02 6 15 C5.34 15 4.68 15 4 15 C3.67 14.01 3.34 13.02 3 12 C1.70644173 10.62804426 0.37701298 9.28817344 -1 8 C-0.01 7.67 0.98 7.34 2 7 C1.34 6.01 0.68 5.02 0 4 C0 2.68 0 1.36 0 0 Z " fill="#C68D29" transform="translate(44,119)"/>
<path d="M0 0 C8.89198124 -1.03395131 17.77455068 3.05669587 24.875 8.1875 C29.49053991 12.06079966 33.02766032 16.77212281 36 22 C36 22.66 36 23.32 36 24 C36.94875 24.309375 37.8975 24.61875 38.875 24.9375 C42 26 42 26 44 27 C44 27.66 44 28.32 44 29 C42.46279297 29.50660156 42.46279297 29.50660156 40.89453125 30.0234375 C39.53382737 30.4738774 38.17315178 30.92440276 36.8125 31.375 C36.13896484 31.59671875 35.46542969 31.8184375 34.77148438 32.046875 C31.13030959 33.25467932 27.54288783 34.52780972 24 36 C24 35.01 24 34.02 24 33 C25.74692795 32.32532438 27.49768525 31.66055844 29.25 31 C30.22453125 30.62875 31.1990625 30.2575 32.203125 29.875 C35 29 35 29 39 29 C39 28.34 39 27.68 39 27 C38.4225 26.773125 37.845 26.54625 37.25 26.3125 C33.25691107 23.98319812 31.32016738 20.65219282 29.3125 16.5625 C24.49154079 8.01456847 13.75400661 4.94143997 5 2 C3.67207317 1.64574129 2.34079519 1.3019224 1 1 C1 1.66 1 2.32 1 3 C0.34 2.67 -0.32 2.34 -1 2 C-0.67 1.34 -0.34 0.68 0 0 Z " fill="#EFE1B9" transform="translate(122,58)"/>
<path d="M0 0 C9.74747494 8.2705848 14.12501755 20.90387568 17 33 C17.12890625 35.97265625 17.12890625 35.97265625 17 38 C15.24871182 37.71617054 13.49899997 37.42260471 11.75 37.125 C10.28820312 36.88136719 10.28820312 36.88136719 8.796875 36.6328125 C6.22735883 36.05144152 4.27928944 35.29159735 2 34 C3.2375 33.979375 4.475 33.95875 5.75 33.9375 C6.44609375 33.92589844 7.1421875 33.91429687 7.859375 33.90234375 C10.03292403 34.00150201 11.91306537 34.40306149 14 35 C12.42848667 29.3603848 10.73244313 24.20465358 8 19 C8 18.34 8 17.68 8 17 C7.34 17 6.68 17 6 17 C5.731875 15.989375 5.46375 14.97875 5.1875 13.9375 C4.10475876 10.12470408 2.60234574 6.62269472 1 3 C0.67 2.01 0.34 1.02 0 0 Z " fill="#F5EBC9" transform="translate(167,41)"/>
<path d="M0 0 C0.99 0.33 1.98 0.66 3 1 C3.66796875 2.94140625 3.66796875 2.94140625 4.1875 5.5625 C5.4948606 10.8968109 7.52425748 15.50684128 10 20.375 C10.51663208 21.39122437 10.51663208 21.39122437 11.04370117 22.42797852 C12.90712525 26.03202734 14.86649809 29.54639378 17 33 C16.01 33.495 16.01 33.495 15 34 C14.01 33.34 13.02 32.68 12 32 C12 31.01 12 30.02 12 29 C11.14369532 27.44437983 10.21615369 25.92738552 9.25 24.4375 C5.61551078 18.57763794 3.17402139 12.52206416 1 6 C0.34 5.67 -0.32 5.34 -1 5 C-1 5.99 -1 6.98 -1 8 C-2.32 8 -3.64 8 -5 8 C-5.0272415 9.41655793 -5.04650467 10.83327045 -5.0625 12.25 C-5.07410156 13.03890625 -5.08570313 13.8278125 -5.09765625 14.640625 C-5.00385306 16.90691002 -4.63241063 18.8288895 -4 21 C-5.97239152 19.3706331 -6.94109032 18.15148204 -7.875 15.75 C-8.17335008 9.18629824 -4.15674208 4.6061196 0 0 Z " fill="#E5D3B3" transform="translate(52,73)"/>
<path d="M0 0 C0 0.66 0 1.32 0 2 C-7.93217972 8.61358361 -17.10077404 8.57522529 -27 8 C-29.47793068 7.52187579 -31.62137595 6.8649542 -34 6 C-33.649375 6.598125 -33.29875 7.19625 -32.9375 7.8125 C-32 10 -32 10 -33 13 C-34.65 9.7 -36.3 6.4 -38 3 C-35 2 -35 2 -32.30078125 2.91796875 C-28.53386086 4.15280537 -25.1067411 4.34282024 -21.1875 4.3125 C-20.4847998 4.31048584 -19.78209961 4.30847168 -19.05810547 4.30639648 C-12.25481326 4.17535268 -6.22830315 0 0 0 Z " fill="#D8A75A" transform="translate(92,108)"/>
<path d="M0 0 C2.22909871 -0.02714735 4.45829367 -0.04646254 6.6875 -0.0625 C7.92886719 -0.07410156 9.17023438 -0.08570312 10.44921875 -0.09765625 C13.46235454 -0.01478673 16.08275339 0.29160551 19 1 C18.01 1.33 17.02 1.66 16 2 C16 2.99 16 3.98 16 5 C14.02 5.99 14.02 5.99 12 7 C12.99 7.66 13.98 8.32 15 9 C15 9.66 15 10.32 15 11 C9.37829601 10.77054269 6.60367444 9.34939318 2.3828125 5.66796875 C0.82670094 3.79096413 0.40291488 2.38133027 0 0 Z " fill="#E1AD31" transform="translate(100,29)"/>
<path d="M0 0 C1.1858519 0.00212242 1.1858519 0.00212242 2.3956604 0.00428772 C4.90183416 0.00985121 7.40791608 0.02239681 9.9140625 0.03515625 C11.62109245 0.04017597 13.32812382 0.04473805 15.03515625 0.04882812 C19.20315998 0.05980866 23.37109571 0.07704786 27.5390625 0.09765625 C27.5390625 0.42765625 27.5390625 0.75765625 27.5390625 1.09765625 C26.37890625 1.14664062 25.21875 1.195625 24.0234375 1.24609375 C11.40959838 1.82806272 -0.40922922 3.09819554 -12.4609375 7.09765625 C-13.1209375 6.43765625 -13.7809375 5.77765625 -14.4609375 5.09765625 C-14.4609375 3.77765625 -14.4609375 2.45765625 -14.4609375 1.09765625 C-9.61760845 0.12966033 -4.91955734 -0.03356461 0 0 Z " fill="#CCA24C" transform="translate(94.4609375,16.90234375)"/>
<path d="M0 0 C4.95 0.33 9.9 0.66 15 1 C16.375 11.5 16.375 11.5 13 16 C13 11.71 13 7.42 13 3 C10.03 2.67 7.06 2.34 4 2 C4 2.66 4 3.32 4 4 C4.66 4 5.32 4 6 4 C5.67 5.32 5.34 6.64 5 8 C4.67 7.34 4.34 6.68 4 6 C-1.08402259 7.90650847 -4.90310537 10.25468098 -9.10546875 13.6953125 C-11.08872189 15.0610992 -12.64792206 15.57234947 -15 16 C-14.34 15.525625 -13.68 15.05125 -13 14.5625 C-8.03553995 10.32202371 -3.62360335 5.43540502 0 0 Z " fill="#E2BE7B" transform="translate(117,114)"/>
<path d="M0 0 C8.04853982 0.61911845 15.39797462 5.39797462 21 11 C25.91325093 17.45248995 28.1851639 24.18282595 30.140625 31.99609375 C30.8764329 35.14446864 30.8764329 35.14446864 33 38 C29.27522081 36.52624561 29.27522081 36.52624561 28.05859375 34.19995117 C27.85363281 33.48814697 27.64867188 32.77634277 27.4375 32.04296875 C27.07785156 30.86831055 27.07785156 30.86831055 26.7109375 29.66992188 C26.47632812 28.85072266 26.24171875 28.03152344 26 27.1875 C23.06055414 17.0690229 18.24486641 10.69473902 9.1015625 5.28515625 C6.41846738 3.81945519 3.72355369 2.38886463 1 1 C1.16371094 1.89976563 1.32742187 2.79953125 1.49609375 3.7265625 C2.08829855 7.57359835 2.06698594 11.11481548 2 15 C1.67 15 1.34 15 1 15 C0.15318867 9.91913204 -0.09038099 5.15171623 0 0 Z " fill="#E5D7B7" transform="translate(57,57)"/>
<path d="M0 0 C4.54075781 4.14010271 7.71842138 8.82390176 11 14 C7.66472903 15.13702419 5.91003798 14.88480118 2.671875 13.56640625 C1.87265625 13.24736328 1.0734375 12.92832031 0.25 12.59960938 C-0.575 12.25736328 -1.4 11.91511719 -2.25 11.5625 C-3.09046875 11.22412109 -3.9309375 10.88574219 -4.796875 10.53710938 C-6.86882572 9.70126562 -8.93603615 8.85533351 -11 8 C-8.39685311 6.26456874 -7.01305957 5.38878188 -4 5 C-3.34 5.66 -2.68 6.32 -2 7 C-1.01 7 -0.02 7 1 7 C0.67 6.67 0.34 6.34 0 6 C-1 3 -1 3 0 0 Z " fill="#E2B33F" transform="translate(130,38)"/>
<path d="M0 0 C2.18697502 2.79624958 3.99152813 5.63307872 5.6875 8.75 C6.12449219 9.54921875 6.56148437 10.3484375 7.01171875 11.171875 C7.50091797 12.07679687 7.50091797 12.07679687 8 13 C1.02936759 12.84846451 -3.8255837 9.54000511 -9 5 C-9.33 4.01 -9.66 3.02 -10 2 C-7.25 1.3125 -7.25 1.3125 -4 1 C-1.625 2.4375 -1.625 2.4375 0 4 C0 2.68 0 1.36 0 0 Z " fill="#CC8E2B" transform="translate(58,92)"/>
<path d="M0 0 C0.99 0 1.98 0 3 0 C2.44271087 3.34373475 1.64826111 6.03312999 0 9 C-0.66 9 -1.32 9 -2 9 C-2.66 12.63 -3.32 16.26 -4 20 C-4.66 20 -5.32 20 -6 20 C-6.66 21.32 -7.32 22.64 -8 24 C-8.66 23.67 -9.32 23.34 -10 23 C-9.625 20.5625 -9.625 20.5625 -9 18 C-8.34 17.67 -7.68 17.34 -7 17 C-7.04125 15.7625 -7.0825 14.525 -7.125 13.25 C-7.09502033 7.59383469 -7.09502033 7.59383469 -5 5 C-2.375 3.75 -2.375 3.75 0 3 C0 2.01 0 1.02 0 0 Z " fill="#C38820" transform="translate(47,46)"/>
<path d="M0 0 C0.99 0.99 1.98 1.98 3 3 C2.67 3.66 2.34 4.32 2 5 C2.99 5.33 3.98 5.66 5 6 C4.67 8.31 4.34 10.62 4 13 C4.99 13.33 5.98 13.66 7 14 C6.01 15.485 6.01 15.485 5 17 C5.33 17.99 5.66 18.98 6 20 C6 20.99 6 21.98 6 23 C6.66 23.66 7.32 24.32 8 25 C8 25.99 8 26.98 8 28 C6.68 27.67 5.36 27.34 4 27 C3.58427734 25.53626953 3.58427734 25.53626953 3.16015625 24.04296875 C2.794306 22.75780249 2.42841864 21.47264679 2.0625 20.1875 C1.70285156 18.92292969 1.34320313 17.65835938 0.97265625 16.35546875 C0.35508739 14.22498018 -0.29854631 12.10436108 -1 10 C-1.47469459 2.94938918 -1.47469459 2.94938918 0 0 Z " fill="#DB9B27" transform="translate(139,111)"/>
<path d="M0 0 C0.99 0.33 1.98 0.66 3 1 C-2.20728485 6.30853761 -7.80401892 10.30611682 -14.25 13.9375 C-14.93513672 14.32671631 -15.62027344 14.71593262 -16.32617188 15.11694336 C-19.86314279 17.05666997 -22.93475272 18.50366167 -27 19 C-27 18.34 -27 17.68 -27 17 C-24.09399739 15.74335022 -22.20395416 15 -19 15 C-19 14.34 -19 13.68 -19 13 C-19.66 12.67 -20.32 12.34 -21 12 C-20.195625 11.731875 -19.39125 11.46375 -18.5625 11.1875 C-17.716875 10.795625 -16.87125 10.40375 -16 10 C-15.67 9.01 -15.34 8.02 -15 7 C-13.906875 7.020625 -12.81375 7.04125 -11.6875 7.0625 C-8.05615809 7.18544452 -8.05615809 7.18544452 -5 6 C-5 5.34 -5 4.68 -5 4 C-3.35 3.34 -1.7 2.68 0 2 C0 1.34 0 0.68 0 0 Z " fill="#D4AA65" transform="translate(163,144)"/>
<path d="M0 0 C0.66 0 1.32 0 2 0 C2.33 0.66 2.66 1.32 3 2 C4.65 2 6.3 2 8 2 C8 3.98 8 5.96 8 8 C7.360625 8.103125 6.72125 8.20625 6.0625 8.3125 C5.381875 8.539375 4.70125 8.76625 4 9 C3.67 9.99 3.34 10.98 3 12 C2.278125 11.484375 1.55625 10.96875 0.8125 10.4375 C-2.48217259 8.75355623 -3.53318353 9.12018607 -7 10 C-6.02223933 8.51990357 -5.0427506 7.04094856 -4.0625 5.5625 C-3.51722656 4.73878906 -2.97195312 3.91507813 -2.41015625 3.06640625 C-1 1 -1 1 0 0 Z " fill="#DC9D28" transform="translate(164,127)"/>
<path d="M0 0 C14.08154847 4.58629811 24.98506314 12.0534411 35 23 C34.67 23.66 34.34 24.32 34 25 C31.1875 24.375 31.1875 24.375 28 23 C26.9641321 21.01833966 25.96887581 19.01526169 25 17 C20.45284875 12.15781078 14.93360704 9.08319275 9.0625 6.125 C8.28326172 5.7228125 7.50402344 5.320625 6.70117188 4.90625 C4.80507597 3.92912082 2.90313732 2.96334285 1 2 C1 3.65 1 5.3 1 7 C0.67 7 0.34 7 0 7 C0 4.69 0 2.38 0 0 Z " fill="#F0E6C2" transform="translate(132,16)"/>
<path d="M0 0 C0.44279297 0.47945068 0.88558594 0.95890137 1.34179688 1.45288086 C3.62661839 3.58464087 5.13094774 3.3966749 8.21875 3.44140625 C9.23324219 3.46783203 10.24773437 3.49425781 11.29296875 3.52148438 C12.88044922 3.54178711 12.88044922 3.54178711 14.5 3.5625 C16.5939078 3.59693088 18.68770168 3.63953307 20.78125 3.69140625 C21.71001953 3.70373291 22.63878906 3.71605957 23.59570312 3.72875977 C26 4 26 4 29 6 C17.84547859 8.07251682 7.42359071 7.79205345 -3 3 C-3.66 2.34 -4.32 1.68 -5 1 C-2.6875 0.3125 -2.6875 0.3125 0 0 Z " fill="#D2AE77" transform="translate(90,143)"/>
<path d="M0 0 C0.66 0 1.32 0 2 0 C2.66 0.66 3.32 1.32 4 2 C4.66 2.33 5.32 2.66 6 3 C5.8125 5.3125 5.8125 5.3125 5 8 C2.5 9.6875 2.5 9.6875 0 11 C-0.33 11.66 -0.66 12.32 -1 13 C-1.99 13 -2.98 13 -4 13 C-3.67 9.7 -3.34 6.4 -3 3 C-2.01 2.67 -1.02 2.34 0 2 C0 1.34 0 0.68 0 0 Z " fill="#E4A226" transform="translate(119,65)"/>
<path d="M0 0 C3.85687014 0.55098145 5.43951537 2.1388524 8 5 C9.13551764 6.84386436 10.21587765 8.72241568 11.25 10.625 C14.64472962 16.59303643 18.5552628 21.78304584 23 27 C23.60714844 27.71800781 24.21429688 28.43601563 24.83984375 29.17578125 C26.21666749 30.7923343 27.60666087 32.39766 29 34 C18.49138159 30.70570456 12.21207225 17.11175221 7 8 C6.64035156 7.24074219 6.28070313 6.48148437 5.91015625 5.69921875 C4.70730353 3.45354951 3.31758217 2.92703287 1 2 C0.67 2.66 0.34 3.32 0 4 C0 2.68 0 1.36 0 0 Z " fill="#E2D9BD" transform="translate(35,107)"/>
<path d="M0 0 C1 2 1 2 0.25 4.58203125 C-4.34058689 16.44582925 -9.72629721 27.26771131 -18 37 C-19 34 -19 34 -18.25 31.375 C-17 29 -17 29 -14 28 C-12.57325305 25.93450024 -11.33556309 23.93724435 -10.125 21.75 C-9.77493896 21.12971924 -9.42487793 20.50943848 -9.06420898 19.87036133 C-6.14748223 14.56410804 -3.94098912 9.15620333 -1.91015625 3.44921875 C-1 1 -1 1 0 0 Z " fill="#E6D6B3" transform="translate(185,107)"/>
<path d="M0 0 C0.99 0 1.98 0 3 0 C3.66 0.66 4.32 1.32 5 2 C4.938125 3.134375 4.87625 4.26875 4.8125 5.4375 C4.874375 6.613125 4.93625 7.78875 5 9 C6.65532623 10.01866229 8.32260138 11.01810813 10 12 C10.8125 15.6875 10.8125 15.6875 11 19 C10.34 19 9.68 19 9 19 C8.67 17.35 8.34 15.7 8 14 C6.35 14 4.7 14 3 14 C2.3012307 12.23358317 1.61633417 10.46167336 0.9375 8.6875 C0.55464844 7.70136719 0.17179687 6.71523437 -0.22265625 5.69921875 C-1 3 -1 3 0 0 Z " fill="#DC9E29" transform="translate(122,86)"/>
<path d="M0 0 C1.32 0 2.64 0 4 0 C4.12375 0.804375 4.2475 1.60875 4.375 2.4375 C5.11554163 6.65858729 6.04401126 10.82335017 7 15 C8.2065625 14.7215625 8.2065625 14.7215625 9.4375 14.4375 C10.7059375 14.2209375 10.7059375 14.2209375 12 14 C13 15 13 15 13.0625 17.5625 C13.041875 18.366875 13.02125 19.17125 13 20 C13.66 20 14.32 20 15 20 C15 20.66 15 21.32 15 22 C14.01 22 13.02 22 12 22 C11.67 20.35 11.34 18.7 11 17 C10.566875 17.495 10.13375 17.99 9.6875 18.5 C8 20 8 20 5 20 C4.89042969 19.14277344 4.78085938 18.28554687 4.66796875 17.40234375 C3.79758338 11.12566222 2.89466069 5.6577459 0 0 Z " fill="#D9C197" transform="translate(118,85)"/>
<path d="M0 0 C1.53469372 2.83080061 2.37543369 5.44282613 3.125 8.5625 C4.01377728 11.39169678 4.44115901 12.64588294 6.97265625 14.25 C9.41999399 15.19396673 9.41999399 15.19396673 13 16 C12.2578125 19.78125 12.2578125 19.78125 9.9375 21.75 C9.298125 22.1625 8.65875 22.575 8 23 C8 22.01 8 21.02 8 20 C7.34 19.67 6.68 19.34 6 19 C3.875 17.0625 3.875 17.0625 2 15 C2 14.34 2 13.68 2 13 C1.34 12.67 0.68 12.34 0 12 C0.66 12 1.32 12 2 12 C1.505 10.4221875 1.505 10.4221875 1 8.8125 C0.16033218 5.61126643 -0.19750904 3.2588992 0 0 Z " fill="#DBB96D" transform="translate(82,80)"/>
<path d="M0 0 C0.33 0.66 0.66 1.32 1 2 C-1 5 -1 5 -4 6 C-5.20882096 8.00016466 -5.20882096 8.00016466 -6 10 C-4.7625 10.680625 -4.7625 10.680625 -3.5 11.375 C-2.675 11.91125 -1.85 12.4475 -1 13 C-1 13.66 -1 14.32 -1 15 C-2.97986082 14.88652381 -4.95891598 14.7589065 -6.9375 14.625 C-8.03964844 14.55539063 -9.14179688 14.48578125 -10.27734375 14.4140625 C-11.17582031 14.27742187 -12.07429687 14.14078125 -13 14 C-13.33 13.34 -13.66 12.68 -14 12 C-11.09378023 8.9851365 -8.03566551 6.34394645 -4.75 3.75 C-3.85796875 3.04359375 -2.9659375 2.3371875 -2.046875 1.609375 C-1.03367188 0.81273437 -1.03367188 0.81273437 0 0 Z " fill="#D49A27" transform="translate(156,137)"/>
<path d="M0 0 C0.66 0 1.32 0 2 0 C2 0.99 2 1.98 2 3 C2.66 3.33 3.32 3.66 4 4 C4.474375 5.134375 4.94875 6.26875 5.4375 7.4375 C6.70190988 11.19068113 6.70190988 11.19068113 10 13 C10 13.99 10 14.98 10 16 C10.66 16 11.32 16 12 16 C12.33 16.99 12.66 17.98 13 19 C13.99 19.33 14.98 19.66 16 20 C16 20.99 16 21.98 16 23 C16.99 23.33 17.98 23.66 19 24 C18.67 25.32 18.34 26.64 18 28 C12.63095014 22.60609343 8.24494205 17.2289279 4.5 10.625 C4.16226563 10.03058105 3.82453125 9.43616211 3.4765625 8.82373047 C1.89229932 5.93752373 0.57743384 3.25608526 0 0 Z " fill="#CBAF85" transform="translate(38,118)"/>
<path d="M0 0 C2.97 0.33 5.94 0.66 9 1 C9 2.33333333 9 3.66666667 9 5 C9.33 5.66 9.66 6.32 10 7 C9.22265625 9.1640625 9.22265625 9.1640625 8.0625 11.625 C7.68222656 12.44226563 7.30195312 13.25953125 6.91015625 14.1015625 C6.45962891 15.04128906 6.45962891 15.04128906 6 16 C5.67 16 5.34 16 5 16 C4.97421875 15.09636719 4.9484375 14.19273438 4.921875 13.26171875 C4.86515625 12.08222656 4.8084375 10.90273437 4.75 9.6875 C4.70359375 8.51574219 4.6571875 7.34398438 4.609375 6.13671875 C4.29945851 2.90521318 4.29945851 2.90521318 1.953125 1.08203125 C1.30859375 0.72496094 0.6640625 0.36789063 0 0 Z " fill="#DFA72F" transform="translate(101,58)"/>
<path d="M0 0 C-0.66 0 -1.32 0 -2 0 C-2 2.31 -2 4.62 -2 7 C-0.88625 7.12375 0.2275 7.2475 1.375 7.375 C5 8 5 8 7 10 C5.390625 10.71484375 5.390625 10.71484375 3 11 C-0.015625 9.56640625 -0.015625 9.56640625 -3.25 7.5625 C-4.32765625 6.90378906 -5.4053125 6.24507812 -6.515625 5.56640625 C-7.33546875 5.04949219 -8.1553125 4.53257813 -9 4 C-8 1 -8 1 -6.1875 -0.25 C-3.66056586 -1.11637742 -2.47778006 -0.88492145 0 0 Z " fill="#D2AD6B" transform="translate(71,45)"/>
<path d="M0 0 C1.08796875 -0.00386719 2.1759375 -0.00773438 3.296875 -0.01171875 C4.3384375 -0.01042969 5.38 -0.00914063 6.453125 -0.0078125 C7.39833008 -0.00668457 8.34353516 -0.00555664 9.31738281 -0.00439453 C11.75 0.125 11.75 0.125 14.75 1.125 C12.875 5 12.875 5 11.75 6.125 C10.08382885 6.16563832 8.41611905 6.167721 6.75 6.125 C7.41 5.67125 8.07 5.2175 8.75 4.75 C9.41 4.21375 10.07 3.6775 10.75 3.125 C10.75 2.465 10.75 1.805 10.75 1.125 C7.16637224 1.26410487 3.58318502 1.41245413 0 1.5625 C-1.01578125 1.60181641 -2.0315625 1.64113281 -3.078125 1.68164062 C-4.0578125 1.72353516 -5.0375 1.76542969 -6.046875 1.80859375 C-7.39797363 1.86358032 -7.39797363 1.86358032 -8.77636719 1.91967773 C-11.05105927 2.10848706 -13.05306753 2.53424818 -15.25 3.125 C-16.66534778 3.18956879 -18.08337689 3.21111039 -19.5 3.1875 C-21.35625 3.1565625 -21.35625 3.1565625 -23.25 3.125 C-16.39942476 -0.98534514 -7.68963064 -0.02772703 0 0 Z " fill="#E1D2B6" transform="translate(111.25,12.875)"/>
<path d="M0 0 C4.19521855 4.08481807 6.80211876 7.06161131 8.2890625 12.765625 C9.54706523 16.71934785 11.35538684 20.45872211 13.07421875 24.23046875 C14.0306737 27.09176226 14.08567155 28.24305224 13 31 C12.16235732 29.04350603 11.33000941 27.08474444 10.5 25.125 C10.0359375 24.03445312 9.571875 22.94390625 9.09375 21.8203125 C8 19 8 19 8 17 C7.34 17 6.68 17 6 17 C5.731875 15.989375 5.46375 14.97875 5.1875 13.9375 C4.10475876 10.12470408 2.60234574 6.62269472 1 3 C0.67 2.01 0.34 1.02 0 0 Z " fill="#EED279" transform="translate(167,41)"/>
<path d="M0 0 C0.99 0.33 1.98 0.66 3 1 C3 1.66 3 2.32 3 3 C4.423125 3.4021875 4.423125 3.4021875 5.875 3.8125 C9 5 9 5 11 8 C4.78374836 9.34076016 4.78374836 9.34076016 1.125 7.75 C-1 6 -1 6 -2 3 C-1.34 2.01 -0.68 1.02 0 0 Z " fill="#C2861E" transform="translate(63,144)"/>
<path d="M0 0 C2.0625 0.4375 2.0625 0.4375 4 1 C1.01878696 5.0131714 -1.97842577 8.06760212 -6 11 C-7.32 11 -8.64 11 -10 11 C-10 8.36 -10 5.72 -10 3 C-9.731875 3.639375 -9.46375 4.27875 -9.1875 4.9375 C-8.11332248 7.33131686 -8.11332248 7.33131686 -5 8 C-5.33 6.68 -5.66 5.36 -6 4 C-4.7934375 3.2884375 -4.7934375 3.2884375 -3.5625 2.5625 C-1.15246512 1.23099846 -1.15246512 1.23099846 0 0 Z " fill="#DCB467" transform="translate(152,131)"/>
<path d="M0 0 C0.99 0 1.98 0 3 0 C1.59699973 3.54611536 0.12314407 7.05569779 -1.375 10.5625 C-3.90693139 16.61058537 -6.01734012 22.75295992 -8 29 C-8.99 29 -9.98 29 -11 29 C-11.33 28.01 -11.66 27.02 -12 26 C-11.01 25.67 -10.02 25.34 -9 25 C-8.04562455 22.48691104 -7.27195351 20.08193609 -6.5625 17.5 C-4.78720358 11.41017067 -2.76211606 5.72883332 0 0 Z " fill="#DCCAAD" transform="translate(110,65)"/>
<path d="M0 0 C6.875 3.625 6.875 3.625 8 7 C8.598125 7.2475 9.19625 7.495 9.8125 7.75 C13.27019247 9.72582427 14.28450085 12.44192769 16 16 C15.67 16.66 15.34 17.32 15 18 C14.79375 17.38125 14.5875 16.7625 14.375 16.125 C13.12926238 13.66960736 13.12926238 13.66960736 10 13.25 C9.01 12.8375 8.02 12.425 7 12 C6.26366201 9.96091019 5.93368405 7.97782732 5.56640625 5.84375 C5.13113766 3.6778166 5.13113766 3.6778166 2.375 2.5 C1.59125 2.335 0.8075 2.17 0 2 C0 1.34 0 0.68 0 0 Z M4 8 C6 9 6 9 6 9 Z " fill="#DAA539" transform="translate(66,62)"/>
<path d="M0 0 C2.97 0.495 2.97 0.495 6 1 C6 2.32 6 3.64 6 5 C6.54269531 4.77183594 7.08539063 4.54367188 7.64453125 4.30859375 C8.35996094 4.02113281 9.07539062 3.73367187 9.8125 3.4375 C10.52019531 3.14746094 11.22789063 2.85742188 11.95703125 2.55859375 C14 2 14 2 17 3 C15.02 4.98 13.04 6.96 11 9 C5.70841026 7.59928507 3.22521956 4.14512755 0 0 Z " fill="#CEA059" transform="translate(73,101)"/>
<path d="M0 0 C1.20153575 3.97365037 0.637386 6.15214289 -1 10 C-2.70484526 12.35431012 -3.60576304 12.8989136 -6.4375 13.625 C-7.7059375 13.810625 -7.7059375 13.810625 -9 14 C-10.33542939 14.32483418 -11.66961551 14.6550855 -13 15 C-12.34 14.38125 -11.68 13.7625 -11 13.125 C-6.94330155 9.09168309 -3.51970455 4.49788547 0 0 Z " fill="#D8AC61" transform="translate(105,93)"/>
<path d="M0 0 C2.62076456 1.74717637 3.66502465 3.5800493 5.0625 6.375 C5.0625 7.035 5.0625 7.695 5.0625 8.375 C5.7225 8.705 6.3825 9.035 7.0625 9.375 C6.7325 10.035 6.4025 10.695 6.0625 11.375 C5.0725 11.375 4.0825 11.375 3.0625 11.375 C3.0625 9.725 3.0625 8.075 3.0625 6.375 C2.7325 7.035 2.4025 7.695 2.0625 8.375 C0.7425 8.045 -0.5775 7.715 -1.9375 7.375 C-1.9375 6.385 -1.9375 5.395 -1.9375 4.375 C-2.5975 4.375 -3.2575 4.375 -3.9375 4.375 C-3.9375 3.055 -3.9375 1.735 -3.9375 0.375 C-1.9375 -0.625 -1.9375 -0.625 0 0 Z " fill="#E7B02C" transform="translate(145.9375,31.625)"/>
<path d="M0 0 C0.33 0 0.66 0 1 0 C1.62455227 12.16720344 -1.7779538 21.14309762 -7 32 C-8.34943127 27.95170618 -7.19248771 26.20112265 -5.6875 22.25 C-2.22141608 13.11872694 -2.22141608 13.11872694 -0.375 3.5625 C-0.189375 1.7990625 -0.189375 1.7990625 0 0 Z " fill="#E1B03E" transform="translate(184,95)"/>
<path d="M0 0 C0.86560547 0.01353516 1.73121094 0.02707031 2.62304688 0.04101562 C4.72814174 0.0759067 6.83290974 0.12969335 8.9375 0.1875 C8.9375 1.5075 8.9375 2.8275 8.9375 4.1875 C7.9475 4.6825 7.9475 4.6825 6.9375 5.1875 C6.6075 4.1975 6.2775 3.2075 5.9375 2.1875 C0.9875 1.8575 -3.9625 1.5275 -9.0625 1.1875 C-9.0625 1.8475 -9.0625 2.5075 -9.0625 3.1875 C-11.8125 4.3125 -11.8125 4.3125 -15.0625 5.1875 C-17.265625 4.2421875 -17.265625 4.2421875 -19.0625 3.1875 C-12.55597698 0.57013677 -6.98082591 -0.21121196 0 0 Z " fill="#E1D2B4" transform="translate(110.0625,55.8125)"/>
<path d="M0 0 C4.02624699 3.81433926 6.69862867 6.35073573 7.3359375 11.953125 C7.42142445 19.16822325 6.85496044 23.85615679 3 30 C2.67 30 2.34 30 2 30 C2 28.35 2 26.7 2 25 C2.66 25 3.32 25 4 25 C5.52705051 19.08267927 5.87668264 13.29607358 3.6875 7.5625 C2.09498436 4.78178314 2.09498436 4.78178314 -1 3 C-0.67 2.01 -0.34 1.02 0 0 Z " fill="#DDCAA6" transform="translate(109,85)"/>
<path d="M0 0 C-5.14285714 5.57142857 -5.14285714 5.57142857 -9 6 C-9 6.66 -9 7.32 -9 8 C-9.99 8 -10.98 8 -12 8 C-10.125 2.25 -10.125 2.25 -9 0 C-5.44307323 -0.85056945 -3.50729422 -1.16909807 0 0 Z " fill="#D39320" transform="translate(149,151)"/>
<path d="M0 0 C0.99 0.33 1.98 0.66 3 1 C3 2.32 3 3.64 3 5 C3.66 4.67 4.32 4.34 5 4 C6.125 7.75 6.125 7.75 5 10 C0.25 9.25 0.25 9.25 -2 7 C-4.58354218 6.83312552 -4.58354218 6.83312552 -7 7 C-7 6.34 -7 5.68 -7 5 C-5.68 5 -4.36 5 -3 5 C-2.67 4.34 -2.34 3.68 -2 3 C-1.34 3 -0.68 3 0 3 C0 2.01 0 1.02 0 0 Z " fill="#E0AC2C" transform="translate(127,37)"/>
<path d="M0 0 C1.155 0.33 2.31 0.66 3.5 1 C8.04141514 2.01641196 12.48883639 2.19178877 17.125 2.1875 C18.12756836 2.1884668 18.12756836 2.1884668 19.15039062 2.18945312 C23.52927142 2.14199727 27.69018449 1.69964538 32 1 C31 3 31 3 29.2265625 3.61669922 C26.89883876 4.01741482 24.73646911 4.12944721 22.375 4.1328125 C21.06789063 4.13474609 21.06789063 4.13474609 19.734375 4.13671875 C18.83203125 4.13285156 17.9296875 4.12898438 17 4.125 C16.09765625 4.12886719 15.1953125 4.13273437 14.265625 4.13671875 C13.39421875 4.13542969 12.5228125 4.13414063 11.625 4.1328125 C10.83351563 4.13168457 10.04203125 4.13055664 9.2265625 4.12939453 C7.02998126 4.00174233 5.11011287 3.60641657 3 3 C2.67 3.99 2.34 4.98 2 6 C1.34 4.02 0.68 2.04 0 0 Z " fill="#DDCEB7" transform="translate(54,110)"/>
<path d="M0 0 C0.66 0 1.32 0 2 0 C1.41059368 2.96199113 0.80432792 5.918712 0.1875 8.875 C0.02185547 9.71675781 -0.14378906 10.55851562 -0.31445312 11.42578125 C-0.48525391 12.23144531 -0.65605469 13.03710938 -0.83203125 13.8671875 C-0.98389893 14.61081543 -1.1357666 15.35444336 -1.29223633 16.12060547 C-2 18 -2 18 -5 20 C-5.99 19.67 -6.98 19.34 -8 19 C-8 16.36 -8 13.72 -8 11 C-7.67 11 -7.34 11 -7 11 C-7 13.31 -7 15.62 -7 18 C-6.01 18 -5.02 18 -4 18 C-3.814375 16.2675 -3.814375 16.2675 -3.625 14.5 C-3.01284571 9.5852756 -2.22947147 4.45894293 0 0 Z " fill="#D8C6AC" transform="translate(41,66)"/>
<path d="M0 0 C1.4370809 -0.05422947 2.87475462 -0.09289723 4.3125 -0.125 C5.11300781 -0.14820313 5.91351563 -0.17140625 6.73828125 -0.1953125 C9 0 9 0 12 2 C12.70125 2.144375 13.4025 2.28875 14.125 2.4375 C14.74375 2.623125 15.3625 2.80875 16 3 C16.33 3.99 16.66 4.98 17 6 C10.37822074 5.69343615 5.77874846 4.25711277 0 1 C0 0.67 0 0.34 0 0 Z " fill="#C69A5A" transform="translate(73,157)"/>
<path d="M0 0 C-0.71027344 0.31453125 -1.42054687 0.6290625 -2.15234375 0.953125 C-3.53099609 1.59507812 -3.53099609 1.59507812 -4.9375 2.25 C-5.85402344 2.66765625 -6.77054687 3.0853125 -7.71484375 3.515625 C-10.11756777 4.78967184 -10.11756777 4.78967184 -10.9375 7.0078125 C-11.03684183 10.17433333 -9.00209769 11.69455417 -7 14 C-7 14.66 -7 15.32 -7 16 C-9 16 -9 16 -11.625 13.5 C-14.71046145 9.71782145 -14.40829622 6.73623617 -14 2 C-13.113125 1.87625 -12.22625 1.7525 -11.3125 1.625 C-8.04109142 1.12691191 -8.04109142 1.12691191 -5.3125 -0.125 C-3 -1 -3 -1 0 0 Z " fill="#DFC69C" transform="translate(128,132)"/>
<path d="M0 0 C2.91517292 1.07401108 4.77810176 1.77810176 7 4 C5.35 3.67 3.7 3.34 2 3 C2.11433363 5.25056722 2.24186436 7.50046674 2.375 9.75 C2.44460937 11.00296875 2.51421875 12.2559375 2.5859375 13.546875 C2.96168444 16.68046272 3.51294253 18.31370264 5 21 C5.125 24.25 5.125 24.25 5 27 C1.06151188 21.09226782 0.62337347 16.1264339 0.375 9.1875 C0.33632813 8.30384766 0.29765625 7.42019531 0.2578125 6.50976562 C0.16399216 4.34017028 0.08092674 2.17011453 0 0 Z " fill="#CFA764" transform="translate(58,58)"/>
<path d="M0 0 C0.66 0 1.32 0 2 0 C2 0.99 2 1.98 2 3 C4.31 3 6.62 3 9 3 C9 2.34 9 1.68 9 1 C12.28519475 -0.09506492 14.73663415 -0.09960608 18.1875 -0.0625 C19.81751953 -0.04896484 19.81751953 -0.04896484 21.48046875 -0.03515625 C22.31191406 -0.02355469 23.14335938 -0.01195313 24 0 C24 0.33 24 0.66 24 1 C22.87464844 1.16435547 22.87464844 1.16435547 21.7265625 1.33203125 C14.94316028 2.38286056 8.51486278 3.83798802 2 6 C1.34 5.34 0.68 4.68 0 4 C0 2.68 0 1.36 0 0 Z " fill="#D2BF9D" transform="translate(80,18)"/>
<path d="M0 0 C1.47906892 -0.02689216 2.95827483 -0.04634621 4.4375 -0.0625 C5.26121094 -0.07410156 6.08492188 -0.08570312 6.93359375 -0.09765625 C9 0 9 0 10 1 C10.09919077 2.60163916 10.12969898 4.20779918 10.125 5.8125 C10.12757813 6.68519531 10.13015625 7.55789062 10.1328125 8.45703125 C10.01114834 10.78654215 9.65514709 12.76938015 9 15 C8.34 15 7.68 15 7 15 C7.0721875 14.22914063 7.144375 13.45828125 7.21875 12.6640625 C7.35796875 11.15972656 7.35796875 11.15972656 7.5 9.625 C7.5928125 8.62726563 7.685625 7.62953125 7.78125 6.6015625 C8.02792947 4.10296264 8.02792947 4.10296264 8 2 C7.34 2 6.68 2 6 2 C5.67 3.32 5.34 4.64 5 6 C4.67 4.68 4.34 3.36 4 2 C2.68 2 1.36 2 0 2 C0 1.34 0 0.68 0 0 Z " fill="#DEAF49" transform="translate(121,116)"/>
<path d="M0 0 C0.99 0.33 1.98 0.66 3 1 C3 1.99 3 2.98 3 4 C3.66 4 4.32 4 5 4 C5 4.99 5 5.98 5 7 C6.65 7.33 8.3 7.66 10 8 C10 10.64 10 13.28 10 16 C5.46321158 11.98170169 2.54222705 7.5063556 0 2 C0 1.34 0 0.68 0 0 Z " fill="#D2A86B" transform="translate(63,85)"/>
<path d="M0 0 C0.99 0 1.98 0 3 0 C3 0.99 3 1.98 3 3 C2.34 3 1.68 3 1 3 C1 3.99 1 4.98 1 6 C-0.32 6 -1.64 6 -3 6 C-3.0272415 7.41655793 -3.04650467 8.83327045 -3.0625 10.25 C-3.07410156 11.03890625 -3.08570313 11.8278125 -3.09765625 12.640625 C-3.00385306 14.90691002 -2.63241063 16.8288895 -2 19 C-3.97239152 17.3706331 -4.94109032 16.15148204 -5.875 13.75 C-6.08832162 9.05692443 -3.90786273 5.47527694 -1.5 1.5625 C-1.005 1.046875 -0.51 0.53125 0 0 Z " fill="#CDB079" transform="translate(50,75)"/>
<path d="M0 0 C7.75 0.75 7.75 0.75 10 3 C8.5422647 3.335939 7.08378894 3.66866624 5.625 4 C4.81289062 4.185625 4.00078125 4.37125 3.1640625 4.5625 C1 5 1 5 -1 5 C-2.69774938 6.29352333 -4.36739286 7.62517293 -6 9 C-6 5.47190093 -5.35723489 4.53184488 -3 2 C-2.01 2 -1.02 2 0 2 C0 1.34 0 0.68 0 0 Z " fill="#DDB668" transform="translate(123,59)"/>
<path d="M0 0 C2.31 0.33 4.62 0.66 7 1 C7 1.66 7 2.32 7 3 C5.97519531 3.33773437 4.95039063 3.67546875 3.89453125 4.0234375 C2.53382737 4.4738774 1.17315178 4.92440276 -0.1875 5.375 C-0.86103516 5.59671875 -1.53457031 5.8184375 -2.22851562 6.046875 C-5.86969041 7.25467932 -9.45711217 8.52780972 -13 10 C-13 9.01 -13 8.02 -13 7 C-11.25307205 6.32532438 -9.50231475 5.66055844 -7.75 5 C-6.28820312 4.443125 -6.28820312 4.443125 -4.796875 3.875 C-2 3 -2 3 2 3 C2 2.34 2 1.68 2 1 C1.34 0.67 0.68 0.34 0 0 Z " fill="#E3D1A7" transform="translate(159,84)"/>
<path d="M0 0 C2.475 0.495 2.475 0.495 5 1 C5 1.66 5 2.32 5 3 C10.94 3.33 16.88 3.66 23 4 C23 4.33 23 4.66 23 5 C15.53116126 6.53206948 8.61188643 7.35416912 2 3 C1.34 2.01 0.68 1.02 0 0 Z " fill="#CDB792" transform="translate(65,126)"/>
<path d="M0 0 C4.75 1.875 4.75 1.875 7 3 C7 3.66 7 4.32 7 5 C6.34 5.66 5.68 6.32 5 7 C5.66 7 6.32 7 7 7 C7 7.66 7 8.32 7 9 C5.02 9.99 5.02 9.99 3 11 C3 9.68 3 8.36 3 7 C2.01 6.67 1.02 6.34 0 6 C0 4.02 0 2.04 0 0 Z " fill="#E4AE31" transform="translate(135,20)"/>
<path d="M0 0 C1.98 0.99 1.98 0.99 4 2 C3.34 2 2.68 2 2 2 C2.34227572 4.97065509 2.34227572 4.97065509 3 8 C3.66 8.33 4.32 8.66 5 9 C5.6328125 10.84765625 5.6328125 10.84765625 6.125 13.0625 C6.29257813 13.79597656 6.46015625 14.52945313 6.6328125 15.28515625 C6.75398437 15.85105469 6.87515625 16.41695312 7 17 C0.11165145 10.29292378 0.11165145 10.29292378 -0.1953125 6.73828125 C-0.17210937 5.93777344 -0.14890625 5.13726562 -0.125 4.3125 C-0.10695312 3.50425781 -0.08890625 2.69601563 -0.0703125 1.86328125 C-0.04710937 1.24839844 -0.02390625 0.63351563 0 0 Z " fill="#D6BB73" transform="translate(133,18)"/>
<path d="M0 0 C-0.66 3.63 -1.32 7.26 -2 11 C-2.33 11 -2.66 11 -3 11 C-3 8.03 -3 5.06 -3 2 C-6.3 2 -9.6 2 -13 2 C-8.95432068 -0.02283966 -4.34753882 -2.17376941 0 0 Z " fill="#E7D7B2" transform="translate(172,93)"/>
<path d="M0 0 C0.99 0 1.98 0 3 0 C2.46930939 3.82097239 1.50298434 6.06171403 -1 9 C-1 8.01 -1 7.02 -1 6 C-2.70840281 7.63412443 -3.93453047 8.86906094 -5 11 C-5.66 11 -6.32 11 -7 11 C-6.3125 8.125 -6.3125 8.125 -5 5 C-2.375 3.625 -2.375 3.625 0 3 C0 2.01 0 1.02 0 0 Z " fill="#C89946" transform="translate(47,46)"/>
<path d="M0 0 C6.78263434 5.29045478 12.6686921 11.19169542 14 20 C13.01 19.67 12.02 19.34 11 19 C11 18.01 11 17.02 11 16 C9.33793756 13.30616965 9.33793756 13.30616965 7.1875 10.5 C6.47980469 9.5409375 5.77210938 8.581875 5.04296875 7.59375 C3.14006232 5.06202559 3.14006232 5.06202559 1.23828125 3.28125 C0 2 0 2 0 0 Z " fill="#F0E6C2" transform="translate(128,34)"/>
<path d="M0 0 C0.99 0.5259375 0.99 0.5259375 2 1.0625 C6.03652127 2.3239129 8.82914359 1.61537226 13 1 C13.66 1.33 14.32 1.66 15 2 C15 2.66 15 3.32 15 4 C13.68 4.33 12.36 4.66 11 5 C11 5.66 11 6.32 11 7 C6.89188572 5.55007731 3.53144334 3.54592427 0 1 C0 0.67 0 0.34 0 0 Z " fill="#C99E5F" transform="translate(62,150)"/>
<path d="M0 0 C4.8274799 1.41292095 8.7162359 3.42974154 13 6 C11.02 6.99 11.02 6.99 9 8 C8.67 7.34 8.34 6.68 8 6 C7.34 6 6.68 6 6 6 C5.67 6.66 5.34 7.32 5 8 C4.01 7.67 3.02 7.34 2 7 C3 5 3 5 4 4 C3.67 3.34 3.34 2.68 3 2 C2.01 1.67 1.02 1.34 0 1 C0 0.67 0 0.34 0 0 Z " fill="#E7BC47" transform="translate(137,20)"/>
<path d="M0 0 C5.61538462 1.46488294 5.61538462 1.46488294 7.4375 4 C8 6 8 6 7 8 C5.68 8 4.36 8 3 8 C2.87625 7.360625 2.7525 6.72125 2.625 6.0625 C2.315625 5.0415625 2.315625 5.0415625 2 4 C1.34 3.67 0.68 3.34 0 3 C0 2.01 0 1.02 0 0 Z " fill="#C28222" transform="translate(54,138)"/>
<path d="M0 0 C6.75 1.875 6.75 1.875 9 3 C9.33 2.01 9.66 1.02 10 0 C10.99 1.98 11.98 3.96 13 6 C7.57689095 5.56615128 4.29855944 4.35497322 0 1 C0 0.67 0 0.34 0 0 Z " fill="#CDA66C" transform="translate(53,99)"/>
<path d="M0 0 C0.66 0 1.32 0 2 0 C2.0272415 1.41655793 2.04650467 2.83327045 2.0625 4.25 C2.07410156 5.03890625 2.08570313 5.8278125 2.09765625 6.640625 C2.00385306 8.90691002 1.63241063 10.8288895 1 13 C0.01 13 -0.98 13 -2 13 C-1.48041715 8.62065881 -0.94324258 4.31196609 0 0 Z " fill="#BF8520" transform="translate(36,71)"/>
<path d="M0 0 C0.33 0.66 0.66 1.32 1 2 C2.32 1.67 3.64 1.34 5 1 C5 2.65 5 4.3 5 6 C5.66 6 6.32 6 7 6 C6.67 6.99 6.34 7.98 6 9 C4.125 8.75 4.125 8.75 2 8 C-0.02755186 5.06004981 0 3.72295997 0 0 Z " fill="#C78820" transform="translate(46,86)"/>
<path d="M0 0 C1.90389849 2.85584773 2.69462177 4.9311762 3.625 8.1875 C3.88539062 9.08855469 4.14578125 9.98960938 4.4140625 10.91796875 C4.60742188 11.60503906 4.80078125 12.29210937 5 13 C4.01 13 3.02 13 2 13 C2 12.34 2 11.68 2 11 C1.34 11 0.68 11 0 11 C-1.125 3.375 -1.125 3.375 0 0 Z " fill="#D0992E" transform="translate(53,79)"/>
<path d="M0 0 C0.33 0.66 0.66 1.32 1 2 C1.66 2 2.32 2 3 2 C3 3.65 3 5.3 3 7 C1.24871182 6.71617054 -0.50100003 6.42260471 -2.25 6.125 C-3.71179688 5.88136719 -3.71179688 5.88136719 -5.203125 5.6328125 C-7.77264117 5.05144152 -9.72071056 4.29159735 -12 3 C-3.42857143 2.85714286 -3.42857143 2.85714286 0 4 C0 2.68 0 1.36 0 0 Z " fill="#E2D2A6" transform="translate(181,72)"/>
<path d="M0 0 C1.65 0 3.3 0 5 0 C1.8005672 3.71134205 -1.3705719 5.42930118 -6 7 C-8.4375 6.6875 -8.4375 6.6875 -10 6 C-7.44931155 3.64551835 -6.28982642 3.01672076 -2.75 2.8125 C-1.38875 2.9053125 -1.38875 2.9053125 0 3 C0 2.01 0 1.02 0 0 Z " fill="#D6B877" transform="translate(100,49)"/>
<path d="M0 0 C1.8125 0.0625 1.8125 0.0625 4 1 C6.25 4.0625 6.25 4.0625 8 7 C7.67 7.66 7.34 8.32 7 9 C6.34 8.67 5.68 8.34 5 8 C5 7.01 5 6.02 5 5 C3.35 5.66 1.7 6.32 0 7 C-0.38133299 5.0085944 -0.71325582 3.00720923 -1 1 C-0.67 0.67 -0.34 0.34 0 0 Z " fill="#EAC24E" transform="translate(163,40)"/>
<path d="M0 0 C3 2 3 2 4 4 C6.01669827 5.13350534 6.01669827 5.13350534 8 6 C4.22134307 7.25955231 2.96588214 6.48087189 -0.6875 5.0625 C-1.68136719 4.68222656 -2.67523438 4.30195312 -3.69921875 3.91015625 C-4.45847656 3.60980469 -5.21773438 3.30945312 -6 3 C-3 1 -3 1 0 0 Z " fill="#DBBB78" transform="translate(125,43)"/>
<path d="M0 0 C0.33 0.66 0.66 1.32 1 2 C-1 5 -1 5 -4 6 C-4.2475 6.66 -4.495 7.32 -4.75 8 C-5.1625 8.66 -5.575 9.32 -6 10 C-9.625 10.75 -9.625 10.75 -13 11 C-12.34 10.484375 -11.68 9.96875 -11 9.4375 C-7.24666356 6.38791415 -3.62397965 3.2013319 0 0 Z " fill="#D6B787" transform="translate(156,137)"/>
<path d="M0 0 C4.24822374 0.47202486 6.19989709 2.96655518 9 6 C8.67 6.66 8.34 7.32 8 8 C5.125 7.375 5.125 7.375 2 6 C0.625 2.875 0.625 2.875 0 0 Z " fill="#F0DD91" transform="translate(158,33)"/>
<path d="M0 0 C0.66 0.33 1.32 0.66 2 1 C2 1.66 2 2.32 2 3 C1.43410156 3.20496094 0.86820313 3.40992188 0.28515625 3.62109375 C-0.44832031 3.89050781 -1.18179688 4.15992188 -1.9375 4.4375 C-3.03384766 4.83775391 -3.03384766 4.83775391 -4.15234375 5.24609375 C-5.98305678 5.85386948 -5.98305678 5.85386948 -7 7 C-9.67058851 7.14115161 -12.32432238 7.04247107 -15 7 C-11.15627809 5.00198139 -7.17904701 3.46771224 -3.14453125 1.90234375 C-1.05694289 1.18278393 -1.05694289 1.18278393 0 0 Z " fill="#D7C097" transform="translate(141,148)"/>
<path d="M0 0 C-0.33 1.65 -0.66 3.3 -1 5 C-2.32 5 -3.64 5 -5 5 C-5 4.34 -5 3.68 -5 3 C-7.475 2.01 -7.475 2.01 -10 1 C-10 0.67 -10 0.34 -10 0 C-2.25 -1.125 -2.25 -1.125 0 0 Z " fill="#C88820" transform="translate(90,139)"/>
<path d="M0 0 C-2.70879335 1.35439668 -5.00933268 1.06501451 -8 1 C-6.36587557 2.70840281 -5.13093906 3.93453047 -3 5 C-3 5.66 -3 6.32 -3 7 C-6.93673644 5.68775452 -9.22719294 4.08089673 -12 1 C-9.19301445 -1.80698555 -3.49996404 -1.25998705 0 0 Z " fill="#D4C2A5" transform="translate(88,137)"/>
<path d="M0 0 C2 3 2 3 2 5 C-1.14753592 8.14753592 -2.56523436 9.29977385 -7 10 C-6.02223933 8.51990357 -5.0427506 7.04094856 -4.0625 5.5625 C-3.51722656 4.73878906 -2.97195312 3.91507813 -2.41015625 3.06640625 C-1 1 -1 1 0 0 Z " fill="#D8B16E" transform="translate(164,127)"/>
<path d="M0 0 C0.66 0.33 1.32 0.66 2 1 C2 3 2 3 0.390625 4.62109375 C-0.66898438 5.52021484 -0.66898438 5.52021484 -1.75 6.4375 C-2.44609375 7.03433594 -3.1421875 7.63117188 -3.859375 8.24609375 C-4.56578125 8.82488281 -5.2721875 9.40367188 -6 10 C-6.68578125 10.58910156 -7.3715625 11.17820313 -8.078125 11.78515625 C-8.71234375 12.18605469 -9.3465625 12.58695313 -10 13 C-10.99 12.67 -11.98 12.34 -13 12 C-12.48050781 11.63648438 -11.96101563 11.27296875 -11.42578125 10.8984375 C-6.90269987 7.63780582 -3.37935811 4.43540752 0 0 Z " fill="#DBC092" transform="translate(115,117)"/>
<path d="M0 0 C1.65 0.33 3.3 0.66 5 1 C2.34345343 4.73884332 0.41889613 6.64978174 -4 8 C-3.67 5.69 -3.34 3.38 -3 1 C-2.67 1.66 -2.34 2.32 -2 3 C-1.01 3 -0.02 3 1 3 C0.67 2.01 0.34 1.02 0 0 Z " fill="#D6AD66" transform="translate(102,118)"/>
<path d="M0 0 C4.58162026 4.19981857 7.21413848 8.42827696 10 14 C8.35 13.67 6.7 13.34 5 13 C4.9175 12.484375 4.835 11.96875 4.75 11.4375 C4.03861904 9.12551188 3.16058925 7.44517579 1.9375 5.375 C0 2 0 2 0 0 Z " fill="#E5C054" transform="translate(148,70)"/>
<path d="M0 0 C4.95 0 9.9 0 15 0 C15.33 1.65 15.66 3.3 16 5 C15.01 5.66 14.02 6.32 13 7 C13 5.35 13 3.7 13 2 C8.71 1.67 4.42 1.34 0 1 C0 0.67 0 0.34 0 0 Z " fill="#E3BE6A" transform="translate(101,57)"/>
<path d="M0 0 C-0.37047118 2.74148672 -0.68587944 4.58593199 -2.375 6.8125 C-4 8 -4 8 -7 8 C-6.44414399 4.1090079 -4.34122117 0 0 0 Z " fill="#C88F25" transform="translate(56,37)"/>
<path d="M0 0 C5.875 4.625 5.875 4.625 7 8 C4.03 7.505 4.03 7.505 1 7 C1.33 6.01 1.66 5.02 2 4 C1.01 4.33 0.02 4.66 -1 5 C-0.67 3.35 -0.34 1.7 0 0 Z " fill="#CB942F" transform="translate(52,131)"/>
<path d="M0 0 C0.99 0.33 1.98 0.66 3 1 C1.56771184 2.31818554 0.12897516 3.62936704 -1.3125 4.9375 C-2.11300781 5.66839844 -2.91351563 6.39929688 -3.73828125 7.15234375 C-6 9 -6 9 -9 10 C-8.34 8.68 -7.68 7.36 -7 6 C-6.34 6 -5.68 6 -5 6 C-5 5.34 -5 4.68 -5 4 C-3.35 3.34 -1.7 2.68 0 2 C0 1.34 0 0.68 0 0 Z " fill="#DFCBAA" transform="translate(163,144)"/>
<path d="M0 0 C0.33 1.98 0.66 3.96 1 6 C-1.31 5.34 -3.62 4.68 -6 4 C-5.67 3.01 -5.34 2.02 -5 1 C-3 0 -3 0 0 0 Z " fill="#CC8D24" transform="translate(61,96)"/>
<path d="M0 0 C0.33 0 0.66 0 1 0 C1 3.3 1 6.6 1 10 C0.34 10 -0.32 10 -1 10 C-1 11.98 -1 13.96 -1 16 C-1.66 16 -2.32 16 -3 16 C-2.40984815 10.49191603 -1.43336231 5.35121931 0 0 Z " fill="#D4B379" transform="translate(176,94)"/>
<path d="M0 0 C1.32 0 2.64 0 4 0 C4 0.66 4 1.32 4 2 C5.11375 2.12375 6.2275 2.2475 7.375 2.375 C11 3 11 3 13 5 C10.34501768 6.0169313 9.30844625 6.13022151 6.640625 5.00390625 C5.85171875 4.52824219 5.0628125 4.05257812 4.25 3.5625 C3.45078125 3.08941406 2.6515625 2.61632813 1.828125 2.12890625 C1.22484375 1.75636719 0.6215625 1.38382813 0 1 C0 0.67 0 0.34 0 0 Z " fill="#CEB287" transform="translate(65,50)"/>
<path d="M0 0 C1.32 0.33 2.64 0.66 4 1 C4.33 3.64 4.66 6.28 5 9 C4.34 9 3.68 9 3 9 C0.78252188 6.69723426 0.03239994 5.47519908 -0.1875 2.25 C-0.125625 1.5075 -0.06375 0.765 0 0 Z " fill="#CB9948" transform="translate(60,117)"/>
<path d="M0 0 C-0.99 1.32 -1.98 2.64 -3 4 C-4.65 3.67 -6.3 3.34 -8 3 C-7.67 2.01 -7.34 1.02 -7 0 C-4.05610218 -1.17755913 -3.10046087 -1.03348696 0 0 Z " fill="#DB8F1C" transform="translate(96,114)"/>
<path d="M0 0 C1.32 0.66 2.64 1.32 4 2 C0.535 4.97 0.535 4.97 -3 8 C-3.66 7.01 -4.32 6.02 -5 5 C-4.01 5 -3.02 5 -2 5 C-2 4.01 -2 3.02 -2 2 C-1.34 1.67 -0.68 1.34 0 1 C0 0.67 0 0.34 0 0 Z " fill="#DCB872" transform="translate(137,97)"/>
<path d="M0 0 C1.8125 0.1875 1.8125 0.1875 4 1 C5.8125 3.4375 5.8125 3.4375 7 6 C6.67 6.66 6.34 7.32 6 8 C5.01 6.68 4.02 5.36 3 4 C1.68 4.33 0.36 4.66 -1 5 C-0.67 3.35 -0.34 1.7 0 0 Z " fill="#DDB768" transform="translate(107,88)"/>
<path d="M0 0 C1.48529448 2.81627265 2.59430032 5.59367325 3.5625 8.625 C4.27720016 10.85427201 4.95277469 12.90554938 6 15 C4.02 14.34 2.04 13.68 0 13 C0.66 12.67 1.32 12.34 2 12 C1.505 10.4221875 1.505 10.4221875 1 8.8125 C0.16033218 5.61126643 -0.19750904 3.2588992 0 0 Z " fill="#DCAC46" transform="translate(82,80)"/>
<path d="M0 0 C1.32 0.33 2.64 0.66 4 1 C4 1.99 4 2.98 4 4 C4.66 4 5.32 4 6 4 C6 4.66 6 5.32 6 6 C6.66 6 7.32 6 8 6 C8.33 7.65 8.66 9.3 9 11 C5.36440339 7.56638098 2.63886654 4.2026393 0 0 Z " fill="#DFC692" transform="translate(140,35)"/>
<path d="M0 0 C1.22589844 0.29197266 1.22589844 0.29197266 2.4765625 0.58984375 C3.41628906 0.82380859 3.41628906 0.82380859 4.375 1.0625 C4.375 1.3925 4.375 1.7225 4.375 2.0625 C-0.99805699 3.03141192 -0.99805699 3.03141192 -3.625 3.0625 C-5.625 1.625 -5.625 1.625 -6.625 0.0625 C-3.99249612 -1.25375194 -2.82320944 -0.68563658 0 0 Z " fill="#CC962C" transform="translate(94.625,156.9375)"/>
<path d="M0 0 C3.45201639 1.47721422 5.64961936 3.43794001 8.25 6.125 C8.95640625 6.84945312 9.6628125 7.57390625 10.390625 8.3203125 C11.18726563 9.15175781 11.18726563 9.15175781 12 10 C9 10 9 10 6.5625 7.8125 C4.25716434 5.28225355 2.09014094 2.70944196 0 0 Z " fill="#E3D6B0" transform="translate(52,130)"/>
<path d="M0 0 C0.99 0 1.98 0 3 0 C1.43358249 4.30764815 -0.68336156 8.06171464 -3 12 C-4.21386936 8.35839192 -3.6674695 7.66834531 -2.0625 4.3125 C-1.49208984 3.10013672 -1.49208984 3.10013672 -0.91015625 1.86328125 C-0.60980469 1.24839844 -0.30945313 0.63351563 0 0 Z " fill="#D8BF91" transform="translate(110,65)"/>
<path d="M0 0 C4.78902145 2.43969017 7.62722182 3.97529326 10 9 C9.01 9.33 8.02 9.66 7 10 C6.773125 9.05125 6.54625 8.1025 6.3125 7.125 C5.30916286 3.80676612 5.30916286 3.80676612 2.375 2.625 C1.59125 2.41875 0.8075 2.2125 0 2 C0 1.34 0 0.68 0 0 Z " fill="#E4B942" transform="translate(139,64)"/>
<path d="M0 0 C0.33 1.32 0.66 2.64 1 4 C0.34 4 -0.32 4 -1 4 C-1.66 5.32 -2.32 6.64 -3 8 C-3.66 7.67 -4.32 7.34 -5 7 C-4.67 5.35 -4.34 3.7 -4 2 C-2.68 2 -1.36 2 0 2 C0 1.34 0 0.68 0 0 Z " fill="#C58F34" transform="translate(42,62)"/>
<path d="M0 0 C1.9375 0.125 1.9375 0.125 4 1 C5.125 3.375 5.125 3.375 6 6 C6.99 7.485 6.99 7.485 8 9 C3.7257442 7.4169423 1.73468206 4.49431596 -1 1 C-0.67 0.67 -0.34 0.34 0 0 Z " fill="#D8C49F" transform="translate(97,28)"/>
<path d="M0 0 C-0.33 1.32 -0.66 2.64 -1 4 C-3.97 3.505 -3.97 3.505 -7 3 C-7 2.34 -7 1.68 -7 1 C-3.375 -1.125 -3.375 -1.125 0 0 Z " fill="#C1831C" transform="translate(80,154)"/>
<path d="M0 0 C0.99 0 1.98 0 3 0 C3 0.99 3 1.98 3 3 C3.99 3.33 4.98 3.66 6 4 C5.67 5.32 5.34 6.64 5 8 C2.5 5.6875 2.5 5.6875 0 3 C0 2.01 0 1.02 0 0 Z " fill="#C8A672" transform="translate(51,138)"/>
<path d="M0 0 C3.82669043 3.42388092 5.72278474 6.00724943 7 11 C6.34 11 5.68 11 5 11 C4.566875 10.05125 4.13375 9.1025 3.6875 8.125 C2.20697799 4.79958063 2.20697799 4.79958063 -1 3 C-0.67 2.01 -0.34 1.02 0 0 Z " fill="#E9DEC5" transform="translate(109,85)"/>
<path d="M0 0 C0.6875 2.3125 0.6875 2.3125 1 5 C-0.4375 6.8125 -0.4375 6.8125 -2 8 C-2 6.02 -2 4.04 -2 2 C-3.32 2.33 -4.64 2.66 -6 3 C-3.375 0 -3.375 0 0 0 Z " fill="#E1D3B0" transform="translate(62,30)"/>
<path d="M0 0 C2.62187494 1.04874998 3.79371361 1.64931313 5.25 4.125 C5.4975 4.74375 5.745 5.3625 6 6 C4.35 5.67 2.7 5.34 1 5 C0.67 3.35 0.34 1.7 0 0 Z " fill="#D59E3B" transform="translate(113,142)"/>
<path d="M0 0 C-0.5625 1.9375 -0.5625 1.9375 -2 4 C-5.4118321 4.74439973 -8.51394686 5 -12 5 C-9.11083069 1.26107501 -4.63135569 0 0 0 Z " fill="#E3B861" transform="translate(155,98)"/>
<path d="M0 0 C0.66 0.33 1.32 0.66 2 1 C2 1.66 2 2.32 2 3 C2.33 3.99 2.66 4.98 3 6 C1.68 6 0.36 6 -1 6 C-1 7.65 -1 9.3 -1 11 C-1.33 11 -1.66 11 -2 11 C-1.85957123 9.35369672 -1.71250671 7.70795821 -1.5625 6.0625 C-1.48128906 5.14597656 -1.40007812 4.22945313 -1.31640625 3.28515625 C-1 1 -1 1 0 0 Z " fill="#DBA534" transform="translate(117,67)"/>
<path d="M0 0 C2.2477975 2.05233685 3.0022242 3.00667261 4 6 C-1.75 5.25 -1.75 5.25 -4 3 C-2.68 3 -1.36 3 0 3 C0 2.01 0 1.02 0 0 Z " fill="#DAC27F" transform="translate(137,47)"/>
<path d="M0 0 C0.66 0.33 1.32 0.66 2 1 C1.67 1.66 1.34 2.32 1 3 C1.99 3.33 2.98 3.66 4 4 C4 4.66 4 5.32 4 6 C1.69 5.67 -0.62 5.34 -3 5 C-3 4.01 -3 3.02 -3 2 C-2.01 1.34 -1.02 0.68 0 0 Z " fill="#E4AA28" transform="translate(111,34)"/>
<path d="M0 0 C2.31 0.33 4.62 0.66 7 1 C5.125 4.875 5.125 4.875 4 6 C2.33382885 6.04063832 0.66611905 6.042721 -1 6 C-0.34 5.54625 0.32 5.0925 1 4.625 C1.66 4.08875 2.32 3.5525 3 3 C3 2.34 3 1.68 3 1 C2.01 0.67 1.02 0.34 0 0 Z " fill="#E9E0C8" transform="translate(119,13)"/>
<path d="M0 0 C0.268125 0.639375 0.53625 1.27875 0.8125 1.9375 C1.88667752 4.33131686 1.88667752 4.33131686 5 5 C4.67 5.99 4.34 6.98 4 8 C2.68 8 1.36 8 0 8 C0 5.36 0 2.72 0 0 Z " fill="#D8A759" transform="translate(142,134)"/>
<path d="M0 0 C2.475 0.99 2.475 0.99 5 2 C4.67 2.66 4.34 3.32 4 4 C3.67 3.67 3.34 3.34 3 3 C2.67 4.98 2.34 6.96 2 9 C-0.29013653 5.5647952 -0.17842973 4.014669 0 0 Z " fill="#CAAC6E" transform="translate(36,109)"/>
<path d="M0 0 C0 2.31 0 4.62 0 7 C-0.99 6.67 -1.98 6.34 -3 6 C-4.1875 3.4375 -4.1875 3.4375 -5 1 C-1.125 0 -1.125 0 0 0 Z " fill="#D49B34" transform="translate(101,85)"/>
<path d="M0 0 C2.3125 1.9375 2.3125 1.9375 4 4 C3.01 4.495 3.01 4.495 2 5 C-0.35981813 4.06421005 -2.69631264 3.06652192 -5 2 C-5 1.67 -5 1.34 -5 1 C-2.75 0.25 -2.75 0.25 0 0 Z " fill="#D3AF79" transform="translate(90,143)"/>
<path d="M0 0 C-6.625 3.125 -6.625 3.125 -10 2 C-9.67 1.34 -9.34 0.68 -9 0 C-5.65506316 -0.99444068 -3.31044803 -1.10348268 0 0 Z " fill="#D4B98D" transform="translate(98,127)"/>
<path d="M0 0 C0.33 0 0.66 0 1 0 C1 2.64 1 5.28 1 8 C-0.32 8.33 -1.64 8.66 -3 9 C-2.01 6.03 -1.02 3.06 0 0 Z " fill="#DEBB85" transform="translate(172,110)"/>
<path d="M0 0 C1.65 0 3.3 0 5 0 C5.33 1.32 5.66 2.64 6 4 C4.68 4 3.36 4 2 4 C1.34 2.68 0.68 1.36 0 0 Z " fill="#CCA76D" transform="translate(48,94)"/>
<path d="M0 0 C2.31 1.65 4.62 3.3 7 5 C6.67 5.99 6.34 6.98 6 8 C1.3125 4.38671875 1.3125 4.38671875 0 3 C0 2.01 0 1.02 0 0 Z " fill="#EBDBA8" transform="translate(70,62)"/>
<path d="M0 0 C0.99 0 1.98 0 3 0 C2.45773019 3.79588866 0.79872437 5.47211993 -2 8 C-1.33333333 5.33333333 -0.66666667 2.66666667 0 0 Z " fill="#E1C38C" transform="translate(168,136)"/>
<path d="M0 0 C1.875 0.625 1.875 0.625 4 2 C5.25 5.125 5.25 5.125 6 8 C4.68 7.34 3.36 6.68 2 6 C2 5.01 2 4.02 2 3 C1.34 3 0.68 3 0 3 C0 2.01 0 1.02 0 0 Z " fill="#CD9B37" transform="translate(38,111)"/>
<path d="M0 0 C0.66 0.99 1.32 1.98 2 3 C1.34 4.32 0.68 5.64 0 7 C-0.66 7 -1.32 7 -2 7 C-2.125 4.625 -2.125 4.625 -2 2 C-1.34 1.34 -0.68 0.68 0 0 Z " fill="#DCAD53" transform="translate(142,104)"/>
<path d="M0 0 C0.66 0.33 1.32 0.66 2 1 C-0.75 3.0625 -0.75 3.0625 -4 5 C-6.203125 4.62109375 -6.203125 4.62109375 -8 4 C-6.71349294 3.30289269 -5.42059335 2.61757124 -4.125 1.9375 C-3.40570313 1.55464844 -2.68640625 1.17179687 -1.9453125 0.77734375 C-1.30335938 0.52082031 -0.66140625 0.26429687 0 0 Z " fill="#E6CFA6" transform="translate(156,95)"/>
<path d="M0 0 C0.33 0 0.66 0 1 0 C1.33 2.31 1.66 4.62 2 7 C1.01 7 0.02 7 -1 7 C-1.33 7.99 -1.66 8.98 -2 10 C-3 8 -3 8 -2.44140625 6.0546875 C-2.15136719 5.33539063 -1.86132812 4.61609375 -1.5625 3.875 C-1.27503906 3.15054688 -0.98757812 2.42609375 -0.69140625 1.6796875 C-0.46324219 1.12539063 -0.23507813 0.57109375 0 0 Z " fill="#CDB48C" transform="translate(39,57)"/>
<path d="M0 0 C-1.98 0.99 -1.98 0.99 -4 2 C-4 3.65 -4 5.3 -4 7 C-5.5625 5.1875 -5.5625 5.1875 -7 3 C-6.67 2.01 -6.34 1.02 -6 0 C-3.50907189 -1.24546405 -2.58919267 -0.7767578 0 0 Z " fill="#D0C2AD" transform="translate(91,61)"/>
<path d="M0 0 C2.01822917 0.06510417 4.03645833 0.13020833 6.0546875 0.1953125 C4.4296875 1.7578125 4.4296875 1.7578125 2.0546875 3.1953125 C-1.1953125 2.8828125 -1.1953125 2.8828125 -3.9453125 2.1953125 C-1.9453125 0.1953125 -1.9453125 0.1953125 0 0 Z " fill="#E0B97B" transform="translate(94.9453125,57.8046875)"/>
<path d="M0 0 C2.31 0 4.62 0 7 0 C7 1.32 7 2.64 7 4 C5.68 4 4.36 4 3 4 C3 3.01 3 2.02 3 1 C2.01 0.67 1.02 0.34 0 0 Z " fill="#D19825" transform="translate(66,48)"/>
<path d="M0 0 C2.97 0.495 2.97 0.495 6 1 C6 1.99 6 2.98 6 4 C4.35 4.66 2.7 5.32 1 6 C1 5.34 1 4.68 1 4 C1.66 4 2.32 4 3 4 C2.01 2.68 1.02 1.36 0 0 Z " fill="#D7B169" transform="translate(148,151)"/>
<path d="M0 0 C0.66 0.33 1.32 0.66 2 1 C1.67 1.99 1.34 2.98 1 4 C-0.98 4.33 -2.96 4.66 -5 5 C-5 4.34 -5 3.68 -5 3 C-2.625 1.3125 -2.625 1.3125 0 0 Z " fill="#D2932E" transform="translate(97,122)"/>
<path d="M0 0 C0.99 0.33 1.98 0.66 3 1 C1.68 2.32 0.36 3.64 -1 5 C-3.475 4.01 -3.475 4.01 -6 3 C-5.34 2.67 -4.68 2.34 -4 2 C-3.01 2.33 -2.02 2.66 -1 3 C-0.67 2.01 -0.34 1.02 0 0 Z " fill="#D1BA96" transform="translate(85,105)"/>
<path d="M0 0 C0.6875 1.8125 0.6875 1.8125 1 4 C-0.3125 5.75 -0.3125 5.75 -2 7 C-2.66 7 -3.32 7 -4 7 C-2.79618552 4.50638429 -1.54571278 2.31856917 0 0 Z " fill="#D7BA89" transform="translate(105,93)"/>
<path d="M0 0 C7.75 0.75 7.75 0.75 10 3 C3.47692308 3.36923077 3.47692308 3.36923077 1.0625 1.5 C0.5365625 0.7575 0.5365625 0.7575 0 0 Z " fill="#E5BC4E" transform="translate(123,59)"/>
<path d="M0 0 C0.66 0 1.32 0 2 0 C2.66 2.64 3.32 5.28 4 8 C2.35 6.35 0.7 4.7 -1 3 C-0.67 2.01 -0.34 1.02 0 0 Z " fill="#DDC082" transform="translate(136,27)"/>
</svg>
